<svg width="756" height="1261" viewBox="0 0 756 1261" fill="none" xmlns="http://www.w3.org/2000/svg">
<path d="M377.384 188.434H130.927C126.703 188.434 123.279 191.938 123.279 196.26V377.136C123.279 381.458 126.703 384.963 130.927 384.963H377.384C381.608 384.963 385.032 381.458 385.032 377.136V196.26C385.032 191.938 381.608 188.434 377.384 188.434Z" fill="#F2F2F2"/>
<path fill-rule="evenodd" clip-rule="evenodd" d="M202.281 363.72V227.671C202.281 226.192 203.453 224.993 204.898 224.993H366.059C367.504 224.993 368.676 226.192 368.676 227.671V364.222C368.676 365.423 367.699 366.398 366.494 366.398H204.898C203.453 366.398 202.281 365.199 202.281 363.72Z" fill="white"/>
<path fill-rule="evenodd" clip-rule="evenodd" d="M235.483 252.144H225.959C225.222 252.144 224.625 251.549 224.625 250.814C224.625 250.079 225.222 249.484 225.959 249.484H235.483C236.22 249.484 236.817 250.079 236.817 250.814C236.817 251.549 236.22 252.144 235.483 252.144Z" fill="white"/>
<path fill-rule="evenodd" clip-rule="evenodd" d="M235.635 258.528H226.111C225.375 258.528 224.777 257.932 224.777 257.198C224.777 256.463 225.375 255.868 226.111 255.868H235.635C236.372 255.868 236.969 256.463 236.969 257.198C236.969 257.932 236.372 258.528 235.635 258.528Z" fill="white"/>
<path d="M352.516 343.969C353.058 343.969 353.497 344.418 353.497 344.973C353.497 345.509 353.087 345.947 352.57 345.975L352.516 345.977H217.971C217.43 345.977 216.99 345.527 216.99 344.973C216.99 344.437 217.401 343.999 217.918 343.97L217.971 343.969H352.516Z" fill="#2A84C6"/>
<path d="M352.516 343.969C353.058 343.969 353.497 344.418 353.497 344.973C353.497 345.509 353.087 345.947 352.57 345.975L352.516 345.977H217.971C217.43 345.977 216.99 345.527 216.99 344.973C216.99 344.437 217.401 343.999 217.918 343.97L217.971 343.969H352.516Z" fill="white" fill-opacity="0.85"/>
<path d="M331.013 353.157C331.555 353.157 331.995 353.606 331.995 354.161C331.995 354.697 331.584 355.135 331.067 355.164L331.013 355.165H217.971C217.43 355.165 216.99 354.715 216.99 354.161C216.99 353.625 217.401 353.187 217.918 353.158L217.971 353.157H331.013Z" fill="#2A84C6"/>
<path d="M331.013 353.157C331.555 353.157 331.995 353.606 331.995 354.161C331.995 354.697 331.584 355.135 331.067 355.164L331.013 355.165H217.971C217.43 355.165 216.99 354.715 216.99 354.161C216.99 353.625 217.401 353.187 217.918 353.158L217.971 353.157H331.013Z" fill="white" fill-opacity="0.85"/>
<path d="M130.291 179.58H377.89C381.762 179.58 384.901 182.721 384.901 186.596V207.506H123.279V186.596C123.279 182.721 126.418 179.58 130.291 179.58Z" fill="#1443BD"/>
<path d="M130.291 179.58H377.89C381.762 179.58 384.901 182.721 384.901 186.596V207.506H123.279V186.596C123.279 182.721 126.418 179.58 130.291 179.58Z" fill="black" fill-opacity="0.5"/>
<path d="M138.018 198.451C140.782 198.451 143.022 196.208 143.022 193.442C143.022 190.676 140.782 188.434 138.018 188.434C135.254 188.434 133.014 190.676 133.014 193.442C133.014 196.208 135.254 198.451 138.018 198.451Z" fill="#34C759"/>
<path d="M157.487 198.451C160.25 198.451 162.491 196.208 162.491 193.442C162.491 190.676 160.25 188.434 157.487 188.434C154.723 188.434 152.482 190.676 152.482 193.442C152.482 196.208 154.723 198.451 157.487 198.451Z" fill="#B7EE81"/>
<path d="M157.487 198.451C160.25 198.451 162.491 196.208 162.491 193.442C162.491 190.676 160.25 188.434 157.487 188.434C154.723 188.434 152.482 190.676 152.482 193.442C152.482 196.208 154.723 198.451 157.487 198.451Z" fill="#FFCC00"/>
<path d="M175.875 198.451C178.639 198.451 180.88 196.208 180.88 193.442C180.88 190.676 178.639 188.434 175.875 188.434C173.112 188.434 170.871 190.676 170.871 193.442C170.871 196.208 173.112 198.451 175.875 198.451Z" fill="#B7EE81"/>
<path d="M175.875 198.451C178.639 198.451 180.88 196.208 180.88 193.442C180.88 190.676 178.639 188.434 175.875 188.434C173.112 188.434 170.871 190.676 170.871 193.442C170.871 196.208 173.112 198.451 175.875 198.451Z" fill="#FF3B30"/>
<path d="M211.948 292.893L208.729 290.469L211.948 288.051L215.167 290.469L211.948 292.893Z" fill="white"/>
<path d="M189.596 224.96H143.493C141.888 224.96 140.586 226.292 140.586 227.936V363.662C140.586 365.305 141.888 366.637 143.493 366.637H189.596C191.202 366.637 192.504 365.305 192.504 363.662V227.936C192.504 226.292 191.202 224.96 189.596 224.96Z" fill="#1443BD"/>
<path d="M189.596 224.96H143.493C141.888 224.96 140.586 226.292 140.586 227.936V363.662C140.586 365.305 141.888 366.637 143.493 366.637H189.596C191.202 366.637 192.504 365.305 192.504 363.662V227.936C192.504 226.292 191.202 224.96 189.596 224.96Z" fill="white" fill-opacity="0.65"/>
<path d="M179.688 281.409H153.054C152.142 281.409 151.402 282.166 151.402 283.099V287.279C151.402 288.212 152.142 288.969 153.054 288.969H179.688C180.6 288.969 181.34 288.212 181.34 287.279V283.099C181.34 282.166 180.6 281.409 179.688 281.409Z" fill="white"/>
<path d="M179.713 295.799H153.029C152.131 295.799 151.402 296.544 151.402 297.463V301.465C151.402 302.385 152.131 303.13 153.029 303.13H179.713C180.612 303.13 181.34 302.385 181.34 301.465V297.463C181.34 296.544 180.612 295.799 179.713 295.799Z" fill="#2A84C6"/>
<path d="M179.713 295.799H153.029C152.131 295.799 151.402 296.544 151.402 297.463V301.465C151.402 302.385 152.131 303.13 153.029 303.13H179.713C180.612 303.13 181.34 302.385 181.34 301.465V297.463C181.34 296.544 180.612 295.799 179.713 295.799Z" fill="white" fill-opacity="0.85"/>
<path d="M179.713 310.188H153.029C152.131 310.188 151.402 310.933 151.402 311.852V315.855C151.402 316.774 152.131 317.519 153.029 317.519H179.713C180.612 317.519 181.34 316.774 181.34 315.855V311.852C181.34 310.933 180.612 310.188 179.713 310.188Z" fill="#B7EE81"/>
<path d="M179.713 310.188H153.029C152.131 310.188 151.402 310.933 151.402 311.852V315.855C151.402 316.774 152.131 317.519 153.029 317.519H179.713C180.612 317.519 181.34 316.774 181.34 315.855V311.852C181.34 310.933 180.612 310.188 179.713 310.188Z" fill="white" fill-opacity="0.5"/>
<path d="M179.713 324.577H153.029C152.131 324.577 151.402 325.322 151.402 326.241V330.243C151.402 331.162 152.131 331.908 153.029 331.908H179.713C180.612 331.908 181.34 331.162 181.34 330.243V326.241C181.34 325.322 180.612 324.577 179.713 324.577Z" fill="#B7EE81"/>
<path d="M179.713 324.577H153.029C152.131 324.577 151.402 325.322 151.402 326.241V330.243C151.402 331.162 152.131 331.908 153.029 331.908H179.713C180.612 331.908 181.34 331.162 181.34 330.243V326.241C181.34 325.322 180.612 324.577 179.713 324.577Z" fill="white" fill-opacity="0.2"/>
<path fill-rule="evenodd" clip-rule="evenodd" d="M226.466 286.066C225.656 286.066 225 285.38 225 284.533C225 283.686 225.656 283 226.466 283H253.355C254.165 283 254.822 283.686 254.822 284.533C254.822 285.38 254.165 286.066 253.355 286.066H226.466Z" fill="#2A84C6"/>
<path fill-rule="evenodd" clip-rule="evenodd" d="M226.466 286.066C225.656 286.066 225 285.38 225 284.533C225 283.686 225.656 283 226.466 283H253.355C254.165 283 254.822 283.686 254.822 284.533C254.822 285.38 254.165 286.066 253.355 286.066H226.466Z" fill="white" fill-opacity="0.2"/>
<path fill-rule="evenodd" clip-rule="evenodd" d="M234.466 293.066C233.656 293.066 233 292.38 233 291.533C233 290.686 233.656 290 234.466 290H244.932C245.741 290 246.398 290.686 246.398 291.533C246.398 292.38 245.741 293.066 244.932 293.066H234.466Z" fill="#2A84C6"/>
<path fill-rule="evenodd" clip-rule="evenodd" d="M234.466 293.066C233.656 293.066 233 292.38 233 291.533C233 290.686 233.656 290 234.466 290H244.932C245.741 290 246.398 290.686 246.398 291.533C246.398 292.38 245.741 293.066 244.932 293.066H234.466Z" fill="white" fill-opacity="0.85"/>
<path d="M230 259H236C237.061 259 238.078 259.421 238.828 260.172C239.579 260.922 240 261.939 240 263V277C240 276.204 239.684 275.441 239.121 274.879C238.559 274.316 237.796 274 237 274H230V259Z" fill="white"/>
<path d="M250 259H244C242.939 259 241.922 259.421 241.172 260.172C240.421 260.922 240 261.939 240 263V277C240 276.204 240.316 275.441 240.879 274.879C241.441 274.316 242.204 274 243 274H250V259Z" fill="white"/>
<path d="M240 263C240 261.939 239.579 260.922 238.828 260.172C238.078 259.421 237.061 259 236 259H230V274H237C237.796 274 238.559 274.316 239.121 274.879C239.684 275.441 240 276.204 240 277M240 263V277M240 263C240 261.939 240.421 260.922 241.172 260.172C241.922 259.421 242.939 259 244 259H250V274H243C242.204 274 241.441 274.316 240.879 274.879C240.316 275.441 240 276.204 240 277" stroke="#34C759" stroke-width="4" stroke-linecap="round" stroke-linejoin="round"/>
<path fill-rule="evenodd" clip-rule="evenodd" d="M219.539 334.46C218.576 334.46 217.795 333.643 217.795 332.635C217.795 331.627 218.576 330.81 219.539 330.81H231.988C232.951 330.81 233.732 331.627 233.732 332.635C233.732 333.643 232.951 334.46 231.988 334.46H219.539Z" fill="#2A84C6"/>
<path fill-rule="evenodd" clip-rule="evenodd" d="M219.539 334.46C218.576 334.46 217.795 333.643 217.795 332.635C217.795 331.627 218.576 330.81 219.539 330.81H231.988C232.951 330.81 233.732 331.627 233.732 332.635C233.732 333.643 232.951 334.46 231.988 334.46H219.539Z" fill="white" fill-opacity="0.85"/>
<path fill-rule="evenodd" clip-rule="evenodd" d="M219.12 323.667C217.731 323.667 216.605 322.867 216.605 321.881C216.605 320.895 217.731 320.095 219.12 320.095H265.24C266.629 320.095 267.755 320.895 267.755 321.881C267.755 322.867 266.629 323.667 265.24 323.667H219.12Z" fill="#2A84C6"/>
<path fill-rule="evenodd" clip-rule="evenodd" d="M219.12 323.667C217.731 323.667 216.605 322.867 216.605 321.881C216.605 320.895 217.731 320.095 219.12 320.095H265.24C266.629 320.095 267.755 320.895 267.755 321.881C267.755 322.867 266.629 323.667 265.24 323.667H219.12Z" fill="white" fill-opacity="0.2"/>
<path fill-rule="evenodd" clip-rule="evenodd" d="M242.911 334.381C241.522 334.381 240.396 333.582 240.396 332.595C240.396 331.609 241.522 330.81 242.911 330.81H289.031C290.42 330.81 291.546 331.609 291.546 332.595C291.546 333.582 290.42 334.381 289.031 334.381H242.911Z" fill="#2A84C6"/>
<path fill-rule="evenodd" clip-rule="evenodd" d="M242.911 334.381C241.522 334.381 240.396 333.582 240.396 332.595C240.396 331.609 241.522 330.81 242.911 330.81H289.031C290.42 330.81 291.546 331.609 291.546 332.595C291.546 333.582 290.42 334.381 289.031 334.381H242.911Z" fill="white" fill-opacity="0.85"/>
<path fill-rule="evenodd" clip-rule="evenodd" d="M275.929 286.066C275.119 286.066 274.463 285.38 274.463 284.533C274.463 283.686 275.119 283 275.929 283H302.818C303.628 283 304.284 283.686 304.284 284.533C304.284 285.38 303.628 286.066 302.818 286.066H275.929Z" fill="#2A84C6"/>
<path fill-rule="evenodd" clip-rule="evenodd" d="M275.929 286.066C275.119 286.066 274.463 285.38 274.463 284.533C274.463 283.686 275.119 283 275.929 283H302.818C303.628 283 304.284 283.686 304.284 284.533C304.284 285.38 303.628 286.066 302.818 286.066H275.929Z" fill="white" fill-opacity="0.2"/>
<path fill-rule="evenodd" clip-rule="evenodd" d="M283.929 293.066C283.119 293.066 282.463 292.38 282.463 291.533C282.463 290.686 283.119 290 283.929 290H294.394C295.204 290 295.861 290.686 295.861 291.533C295.861 292.38 295.204 293.066 294.394 293.066H283.929Z" fill="#2A84C6"/>
<path fill-rule="evenodd" clip-rule="evenodd" d="M283.929 293.066C283.119 293.066 282.463 292.38 282.463 291.533C282.463 290.686 283.119 290 283.929 290H294.394C295.204 290 295.861 290.686 295.861 291.533C295.861 292.38 295.204 293.066 294.394 293.066H283.929Z" fill="white" fill-opacity="0.85"/>
<path d="M279.463 259H285.463C286.524 259 287.541 259.421 288.291 260.172C289.041 260.922 289.463 261.939 289.463 263V277C289.463 276.204 289.147 275.441 288.584 274.879C288.022 274.316 287.259 274 286.463 274H279.463V259Z" fill="white"/>
<path d="M299.463 259H293.463C292.402 259 291.385 259.421 290.634 260.172C289.884 260.922 289.463 261.939 289.463 263V277C289.463 276.204 289.779 275.441 290.342 274.879C290.904 274.316 291.667 274 292.463 274H299.463V259Z" fill="white"/>
<path d="M289.463 263C289.463 261.939 289.041 260.922 288.291 260.172C287.541 259.421 286.524 259 285.463 259H279.463V274H286.463C287.259 274 288.022 274.316 288.584 274.879C289.147 275.441 289.463 276.204 289.463 277M289.463 263V277M289.463 263C289.463 261.939 289.884 260.922 290.634 260.172C291.385 259.421 292.402 259 293.463 259H299.463V274H292.463C291.667 274 290.904 274.316 290.342 274.879C289.779 275.441 289.463 276.204 289.463 277" stroke="#FFCC00" stroke-width="4" stroke-linecap="round" stroke-linejoin="round"/>
<path fill-rule="evenodd" clip-rule="evenodd" d="M325.39 286.066C324.58 286.066 323.924 285.38 323.924 284.533C323.924 283.686 324.58 283 325.39 283H352.279C353.089 283 353.745 283.686 353.745 284.533C353.745 285.38 353.089 286.066 352.279 286.066H325.39Z" fill="#2A84C6"/>
<path fill-rule="evenodd" clip-rule="evenodd" d="M325.39 286.066C324.58 286.066 323.924 285.38 323.924 284.533C323.924 283.686 324.58 283 325.39 283H352.279C353.089 283 353.745 283.686 353.745 284.533C353.745 285.38 353.089 286.066 352.279 286.066H325.39Z" fill="white" fill-opacity="0.2"/>
<path fill-rule="evenodd" clip-rule="evenodd" d="M333.39 293.066C332.58 293.066 331.924 292.38 331.924 291.533C331.924 290.686 332.58 290 333.39 290H343.855C344.665 290 345.322 290.686 345.322 291.533C345.322 292.38 344.665 293.066 343.855 293.066H333.39Z" fill="#2A84C6"/>
<path fill-rule="evenodd" clip-rule="evenodd" d="M333.39 293.066C332.58 293.066 331.924 292.38 331.924 291.533C331.924 290.686 332.58 290 333.39 290H343.855C344.665 290 345.322 290.686 345.322 291.533C345.322 292.38 344.665 293.066 343.855 293.066H333.39Z" fill="white" fill-opacity="0.85"/>
<g filter="url(#filter0_i_197_1619)">
<rect x="323.924" y="243" width="30.4615" height="36" rx="4" fill="white"/>
</g>
<g clip-path="url(#clip0_197_1619)">
<path d="M328.924 258H334.924C335.985 258 337.002 258.421 337.752 259.172C338.502 259.922 338.924 260.939 338.924 262V276C338.924 275.204 338.608 274.441 338.045 273.879C337.483 273.316 336.719 273 335.924 273H328.924V258Z" fill="white"/>
<path d="M348.924 258H342.924C341.863 258 340.846 258.421 340.095 259.172C339.345 259.922 338.924 260.939 338.924 262V276C338.924 275.204 339.24 274.441 339.803 273.879C340.365 273.316 341.128 273 341.924 273H348.924V258Z" fill="white"/>
<path d="M338.924 262C338.924 260.939 338.502 259.922 337.752 259.172C337.002 258.421 335.985 258 334.924 258H328.924V273H335.924C336.719 273 337.483 273.316 338.045 273.879C338.608 274.441 338.924 275.204 338.924 276M338.924 262V276M338.924 262C338.924 260.939 339.345 259.922 340.095 259.172C340.846 258.421 341.863 258 342.924 258H348.924V273H341.924C341.128 273 340.365 273.316 339.803 273.879C339.24 274.441 338.924 275.204 338.924 276" stroke="#FF3B30" stroke-width="4" stroke-linecap="round" stroke-linejoin="round"/>
</g>
<path fill-rule="evenodd" clip-rule="evenodd" d="M385.048 493.852C392.221 504.012 405.897 506.675 416.213 499.919L509.668 438.731C523.416 429.731 526.941 410.759 517.387 397.223C507.943 383.848 489.527 381.189 476.835 391.368L389.521 461.416C379.762 469.244 377.788 483.565 385.048 493.852Z" fill="#FFC999"/>
<path fill-rule="evenodd" clip-rule="evenodd" d="M454.272 479.393L513.635 440.862C526.17 430.892 526.177 405.317 516.212 392.669C506.246 380.023 488.084 378.197 475.905 388.618L420.259 436.228C420.259 436.228 436.911 470.643 454.272 479.393Z" fill="#1443BD"/>
<path fill-rule="evenodd" clip-rule="evenodd" d="M454.272 479.393L513.635 440.862C526.17 430.892 526.177 405.317 516.212 392.669C506.246 380.023 488.084 378.197 475.905 388.618L420.259 436.228C420.259 436.228 436.911 470.643 454.272 479.393Z" fill="white" fill-opacity="0.5"/>
<path fill-rule="evenodd" clip-rule="evenodd" d="M345.65 357.645C339.649 360.821 336.912 368.083 339.274 374.562L380.799 488.432C385.569 501.508 400.321 507.52 412.569 501.379C424.539 495.376 429.063 480.271 422.434 468.435L363.37 362.989C359.814 356.639 352.003 354.283 345.65 357.645Z" fill="#FFC999"/>
<path fill-rule="evenodd" clip-rule="evenodd" d="M549.063 383.652L534.031 366.864L538.769 311.616L580.805 315.622L580.594 370.295L549.063 383.652Z" fill="#FFC999"/>
<path fill-rule="evenodd" clip-rule="evenodd" d="M528.025 306.16C528.025 306.16 521.786 299.136 518.937 303.643C516.089 308.152 520.349 324.718 527.318 325.361C536.626 326.219 528.025 306.16 528.025 306.16Z" fill="#FFC999"/>
<path fill-rule="evenodd" clip-rule="evenodd" d="M567.402 349.485C567.402 349.485 553.359 360.537 535.553 348.587C522.735 339.985 522.016 310.282 525.188 288.597C526.983 276.326 532.731 269.877 544.575 266.603C556.421 263.329 588.24 264.214 587.347 300.46C586.351 340.834 567.402 349.485 567.402 349.485Z" fill="#FFC999"/>
<path d="M545.49 294.953L545.374 294.968C545.065 295.038 544.856 295.324 544.868 295.637L544.883 295.756L546.515 303.333L541.912 323.718C541.83 324.085 542.062 324.44 542.409 324.514L542.516 324.528L550.998 324.871C551.355 324.885 551.655 324.601 551.669 324.237C551.682 323.908 551.459 323.626 551.154 323.563L551.049 323.55L543.348 323.237L547.806 303.484C547.821 303.42 547.826 303.354 547.822 303.29L547.808 303.193L546.144 295.471C546.076 295.154 545.796 294.941 545.49 294.953Z" fill="#DD936F"/>
<path d="M557.851 330.164C557.742 329.666 557.259 329.354 556.773 329.466L556.451 329.53L556.324 329.554C555.936 329.624 555.478 329.694 554.954 329.759C551.426 330.202 547.137 330.214 542.295 329.508C541.802 329.436 541.345 329.787 541.275 330.291C541.204 330.796 541.547 331.264 542.041 331.336C547.048 332.066 551.495 332.053 555.173 331.592L555.808 331.506C556.009 331.477 556.198 331.447 556.377 331.417L557.013 331.301C557.077 331.287 557.13 331.276 557.169 331.267C557.655 331.155 557.96 330.661 557.851 330.164Z" fill="#F56D7E"/>
<path fill-rule="evenodd" clip-rule="evenodd" d="M582.855 315.87L590.167 302.119C590.167 302.119 595.129 282.125 590.829 273.326C584.155 259.674 567.97 259.541 558.474 255.664C548.977 251.784 549.165 248.481 545.255 248.913C541.343 249.343 525.952 259.644 523.931 270.845C522.154 280.692 523.881 305.971 523.881 305.971C523.881 305.971 527.25 283.735 529.523 277.904C537.226 274.885 564.875 275.568 576.308 279.56C576.308 279.56 577.087 287.189 577.507 292.559C583.554 297.269 582.855 315.87 582.855 315.87Z" fill="#1443BD"/>
<path fill-rule="evenodd" clip-rule="evenodd" d="M582.855 315.87L590.167 302.119C590.167 302.119 595.129 282.125 590.829 273.326C584.155 259.674 567.97 259.541 558.474 255.664C548.977 251.784 549.165 248.481 545.255 248.913C541.343 249.343 525.952 259.644 523.931 270.845C522.154 280.692 523.881 305.971 523.881 305.971C523.881 305.971 527.25 283.735 529.523 277.904C537.226 274.885 564.875 275.568 576.308 279.56C576.308 279.56 577.087 287.189 577.507 292.559C583.554 297.269 582.855 315.87 582.855 315.87Z" fill="black" fill-opacity="0.5"/>
<path d="M535.331 347.32C535.098 347.043 534.69 347.012 534.42 347.249C534.149 347.487 534.118 347.905 534.351 348.182C534.527 348.392 534.866 348.741 535.37 349.181C536.197 349.905 537.198 350.626 538.374 351.298C544.705 354.91 553.167 355.675 563.837 351.85C564.174 351.729 564.351 351.352 564.233 351.007C564.115 350.663 563.747 350.481 563.41 350.602C553.089 354.302 545.013 353.572 539.004 350.143C537.904 349.515 536.973 348.845 536.209 348.176L535.9 347.899C535.621 347.64 535.432 347.441 535.331 347.32Z" fill="#DD936F"/>
<path d="M541.918 292.644C538.941 291.415 535.923 290.74 533.035 290.928C531.001 291.06 529.116 291.625 527.44 292.683C526.631 293.193 526.379 294.279 526.878 295.108C527.377 295.936 528.438 296.194 529.247 295.683C530.419 294.945 531.758 294.543 533.254 294.446C535.55 294.296 538.089 294.864 540.63 295.913C541.271 296.178 541.874 296.458 542.428 296.74L542.833 296.952C543.221 297.16 543.489 297.317 543.618 297.398C544.428 297.908 545.488 297.649 545.987 296.82C546.485 295.99 546.232 294.905 545.422 294.395L545.055 294.173C544.32 293.742 543.246 293.192 541.918 292.644Z" fill="#1443BD"/>
<path d="M541.918 292.644C538.941 291.415 535.923 290.74 533.035 290.928C531.001 291.06 529.116 291.625 527.44 292.683C526.631 293.193 526.379 294.279 526.878 295.108C527.377 295.936 528.438 296.194 529.247 295.683C530.419 294.945 531.758 294.543 533.254 294.446C535.55 294.296 538.089 294.864 540.63 295.913C541.271 296.178 541.874 296.458 542.428 296.74L542.833 296.952C543.221 297.16 543.489 297.317 543.618 297.398C544.428 297.908 545.488 297.649 545.987 296.82C546.485 295.99 546.232 294.905 545.422 294.395L545.055 294.173C544.32 293.742 543.246 293.192 541.918 292.644Z" fill="black" fill-opacity="0.5"/>
<path d="M570.819 295.652C567.841 294.423 564.824 293.749 561.936 293.936C559.901 294.069 558.017 294.634 556.341 295.691C555.531 296.202 555.279 297.287 555.778 298.116C556.277 298.945 557.338 299.202 558.148 298.692C559.319 297.953 560.658 297.551 562.154 297.454C564.451 297.305 566.99 297.872 569.53 298.921C570.172 299.186 570.775 299.466 571.328 299.748L571.734 299.96C572.122 300.168 572.39 300.325 572.518 300.406C573.328 300.916 574.389 300.657 574.887 299.828C575.385 298.999 575.132 297.913 574.322 297.403L573.956 297.181C573.221 296.751 572.146 296.2 570.819 295.652Z" fill="#1443BD"/>
<path d="M570.819 295.652C567.841 294.423 564.824 293.749 561.936 293.936C559.901 294.069 558.017 294.634 556.341 295.691C555.531 296.202 555.279 297.287 555.778 298.116C556.277 298.945 557.338 299.202 558.148 298.692C559.319 297.953 560.658 297.551 562.154 297.454C564.451 297.305 566.99 297.872 569.53 298.921C570.172 299.186 570.775 299.466 571.328 299.748L571.734 299.96C572.122 300.168 572.39 300.325 572.518 300.406C573.328 300.916 574.389 300.657 574.887 299.828C575.385 298.999 575.132 297.913 574.322 297.403L573.956 297.181C573.221 296.751 572.146 296.2 570.819 295.652Z" fill="black" fill-opacity="0.5"/>
<path d="M545.729 336.183C545.373 336.162 545.067 336.44 545.046 336.805C545.028 337.133 545.246 337.419 545.55 337.488L545.654 337.503L550.736 337.806C551.093 337.827 551.398 337.549 551.419 337.184C551.437 336.856 551.219 336.57 550.916 336.501L550.811 336.486L545.729 336.183Z" fill="#DD936F"/>
<path d="M545.771 302.022C545.059 301.971 544.441 302.519 544.39 303.248C544.343 303.927 544.807 304.523 545.448 304.642L545.588 304.66L551.822 305.112C552.533 305.164 553.151 304.615 553.202 303.887C553.249 303.207 552.785 302.611 552.144 302.493L552.004 302.475L545.771 302.022Z" fill="#1443BD"/>
<path d="M545.771 302.022C545.059 301.971 544.441 302.519 544.39 303.248C544.343 303.927 544.807 304.523 545.448 304.642L545.588 304.66L551.822 305.112C552.533 305.164 553.151 304.615 553.202 303.887C553.249 303.207 552.785 302.611 552.144 302.493L552.004 302.475L545.771 302.022Z" fill="black" fill-opacity="0.5"/>
<path d="M551.181 306.455C549.875 305.834 548.536 305.502 547.219 305.635C546.107 305.748 545.091 306.195 544.237 307.01C543.715 307.509 543.687 308.345 544.174 308.879C544.661 309.413 545.478 309.442 546 308.944C546.426 308.536 546.91 308.323 547.473 308.266C548.256 308.187 549.168 308.413 550.091 308.853C550.583 309.087 550.957 309.318 551.146 309.456C551.727 309.88 552.533 309.741 552.948 309.147C553.362 308.552 553.226 307.727 552.645 307.303C552.337 307.078 551.832 306.765 551.181 306.455Z" fill="#1443BD"/>
<path d="M551.181 306.455C549.875 305.834 548.536 305.502 547.219 305.635C546.107 305.748 545.091 306.195 544.237 307.01C543.715 307.509 543.687 308.345 544.174 308.879C544.661 309.413 545.478 309.442 546 308.944C546.426 308.536 546.91 308.323 547.473 308.266C548.256 308.187 549.168 308.413 550.091 308.853C550.583 309.087 550.957 309.318 551.146 309.456C551.727 309.88 552.533 309.741 552.948 309.147C553.362 308.552 553.226 307.727 552.645 307.303C552.337 307.078 551.832 306.765 551.181 306.455Z" fill="black" fill-opacity="0.5"/>
<path d="M575.096 303.796C574.384 303.758 573.776 304.318 573.738 305.047C573.703 305.728 574.178 306.315 574.82 306.421L574.96 306.437L585.191 306.987C585.904 307.025 586.512 306.465 586.549 305.736C586.584 305.056 586.11 304.468 585.467 304.362L585.327 304.347L575.096 303.796Z" fill="#1443BD"/>
<path d="M575.096 303.796C574.384 303.758 573.776 304.318 573.738 305.047C573.703 305.728 574.178 306.315 574.82 306.421L574.96 306.437L585.191 306.987C585.904 307.025 586.512 306.465 586.549 305.736C586.584 305.056 586.11 304.468 585.467 304.362L585.327 304.347L575.096 303.796Z" fill="black" fill-opacity="0.5"/>
<path fill-rule="evenodd" clip-rule="evenodd" d="M574.379 303.004L554.849 301.844C553.487 301.763 552.317 302.825 552.247 304.219C552.119 306.824 552.025 311.006 552.483 314.62C553.025 318.879 556.581 321.68 560.758 322.127C565.974 322.687 570.668 322.969 573.199 320.332C577.055 316.315 576.566 309.294 576.698 305.6C576.746 304.245 575.703 303.081 574.379 303.004Z" fill="white"/>
<path d="M567.255 313.771C567.721 313.87 568.177 313.564 568.274 313.087C568.825 310.379 567.372 307.733 564.953 307.215C562.535 306.7 560.169 308.532 559.618 311.241C559.521 311.717 559.82 312.184 560.286 312.283C560.752 312.383 561.208 312.077 561.305 311.6C561.672 309.796 563.17 308.636 564.601 308.941C566.033 309.248 566.954 310.924 566.587 312.728C566.49 313.205 566.789 313.672 567.255 313.771Z" fill="#1443BD"/>
<path d="M567.255 313.771C567.721 313.87 568.177 313.564 568.274 313.087C568.825 310.379 567.372 307.733 564.953 307.215C562.535 306.7 560.169 308.532 559.618 311.241C559.521 311.717 559.82 312.184 560.286 312.283C560.752 312.383 561.208 312.077 561.305 311.6C561.672 309.796 563.17 308.636 564.601 308.941C566.033 309.248 566.954 310.924 566.587 312.728C566.49 313.205 566.789 313.672 567.255 313.771Z" fill="black" fill-opacity="0.5"/>
<path fill-rule="evenodd" clip-rule="evenodd" d="M543.931 300.972L521.821 299.66C520.814 302.917 520.879 315.749 524.518 318.715C529.448 321.741 539.781 321.172 541.533 318.491C544.193 314.424 545.546 306.443 545.699 302.983C545.746 301.929 544.961 301.033 543.931 300.972Z" fill="white"/>
<path d="M540.257 311.489C540.733 311.497 541.126 311.11 541.134 310.623C541.181 307.856 539.267 305.534 536.797 305.491C534.327 305.449 532.338 307.703 532.293 310.469C532.285 310.956 532.664 311.358 533.14 311.366C533.616 311.374 534.008 310.986 534.016 310.499C534.045 308.657 535.306 307.229 536.769 307.254C538.23 307.279 539.442 308.75 539.411 310.592C539.403 311.079 539.782 311.481 540.257 311.489Z" fill="#1443BD"/>
<path d="M540.257 311.489C540.733 311.497 541.126 311.11 541.134 310.623C541.181 307.856 539.267 305.534 536.797 305.491C534.327 305.449 532.338 307.703 532.293 310.469C532.285 310.956 532.664 311.358 533.14 311.366C533.616 311.374 534.008 310.986 534.016 310.499C534.045 308.657 535.306 307.229 536.769 307.254C538.23 307.279 539.442 308.75 539.411 310.592C539.403 311.079 539.782 311.481 540.257 311.489Z" fill="black" fill-opacity="0.5"/>
<path d="M552.287 301.157C551.574 301.134 550.978 301.707 550.955 302.437C550.934 303.118 551.42 303.695 552.065 303.788L552.205 303.8L576.45 304.589C577.163 304.612 577.76 304.039 577.783 303.309C577.804 302.628 577.317 302.051 576.673 301.958L576.532 301.946L552.287 301.157Z" fill="#1443BD"/>
<path d="M552.287 301.157C551.574 301.134 550.978 301.707 550.955 302.437C550.934 303.118 551.42 303.695 552.065 303.788L552.205 303.8L576.45 304.589C577.163 304.612 577.76 304.039 577.783 303.309C577.804 302.628 577.317 302.051 576.673 301.958L576.532 301.946L552.287 301.157Z" fill="black" fill-opacity="0.5"/>
<path d="M521.705 298.829C520.993 298.776 520.375 299.324 520.323 300.052C520.275 300.732 520.739 301.329 521.379 301.448L521.519 301.466L545.222 303.216C545.934 303.269 546.553 302.721 546.604 301.993C546.652 301.313 546.189 300.716 545.548 300.597L545.408 300.579L521.705 298.829Z" fill="#1443BD"/>
<path d="M521.705 298.829C520.993 298.776 520.375 299.324 520.323 300.052C520.275 300.732 520.739 301.329 521.379 301.448L521.519 301.466L545.222 303.216C545.934 303.269 546.553 302.721 546.604 301.993C546.652 301.313 546.189 300.716 545.548 300.597L545.408 300.579L521.705 298.829Z" fill="black" fill-opacity="0.5"/>
<path d="M554.873 301.405L574.403 302.565C575.962 302.656 577.184 304.023 577.127 305.616L577.106 306.487L577.084 308.065C577.043 310.41 576.96 311.719 576.708 313.332C576.229 316.397 575.231 318.843 573.505 320.641C571.208 323.034 567.849 323.331 560.713 322.566C556.154 322.078 552.603 318.985 552.056 314.677C551.667 311.607 551.631 307.969 551.817 304.196C551.899 302.56 553.271 301.309 554.873 301.405ZM554.823 302.284C553.756 302.221 552.836 303.005 552.693 304.063L552.676 304.241C552.493 307.965 552.528 311.557 552.91 314.563C553.402 318.44 556.618 321.242 560.802 321.69L561.736 321.786C567.957 322.395 570.951 322.045 572.891 320.024C574.474 318.375 575.405 316.093 575.858 313.193L575.942 312.617C576.122 311.294 576.188 310.061 576.223 308.04L576.262 305.716C576.264 305.672 576.265 305.628 576.267 305.584C576.307 304.47 575.446 303.508 574.354 303.444L554.823 302.284Z" fill="#1443BD"/>
<path d="M554.873 301.405L574.403 302.565C575.962 302.656 577.184 304.023 577.127 305.616L577.106 306.487L577.084 308.065C577.043 310.41 576.96 311.719 576.708 313.332C576.229 316.397 575.231 318.843 573.505 320.641C571.208 323.034 567.849 323.331 560.713 322.566C556.154 322.078 552.603 318.985 552.056 314.677C551.667 311.607 551.631 307.969 551.817 304.196C551.899 302.56 553.271 301.309 554.873 301.405ZM554.823 302.284C553.756 302.221 552.836 303.005 552.693 304.063L552.676 304.241C552.493 307.965 552.528 311.557 552.91 314.563C553.402 318.44 556.618 321.242 560.802 321.69L561.736 321.786C567.957 322.395 570.951 322.045 572.891 320.024C574.474 318.375 575.405 316.093 575.858 313.193L575.942 312.617C576.122 311.294 576.188 310.061 576.223 308.04L576.262 305.716C576.264 305.672 576.265 305.628 576.267 305.584C576.307 304.47 575.446 303.508 574.354 303.444L554.823 302.284Z" fill="black" fill-opacity="0.5"/>
<path d="M521.847 299.22L543.957 300.533C545.222 300.608 546.188 301.708 546.13 303.004C545.913 307.906 544.196 315.213 541.892 318.737C539.899 321.787 529.192 322.097 524.298 319.093C521.001 316.411 519.948 304.261 521.412 299.527C521.471 299.335 521.65 299.209 521.847 299.22ZM522.141 300.12L522.085 300.335C520.946 305.111 521.997 316.097 524.787 318.371C529.287 321.128 539.487 320.833 541.177 318.247C543.377 314.882 545.06 307.72 545.271 302.964C545.307 302.149 544.701 301.459 543.907 301.413L522.141 300.12Z" fill="#1443BD"/>
<path d="M521.847 299.22L543.957 300.533C545.222 300.608 546.188 301.708 546.13 303.004C545.913 307.906 544.196 315.213 541.892 318.737C539.899 321.787 529.192 322.097 524.298 319.093C521.001 316.411 519.948 304.261 521.412 299.527C521.471 299.335 521.65 299.209 521.847 299.22ZM522.141 300.12L522.085 300.335C520.946 305.111 521.997 316.097 524.787 318.371C529.287 321.128 539.487 320.833 541.177 318.247C543.377 314.882 545.06 307.72 545.271 302.964C545.307 302.149 544.701 301.459 543.907 301.413L522.141 300.12Z" fill="black" fill-opacity="0.5"/>
<path fill-rule="evenodd" clip-rule="evenodd" d="M586.288 304.683C588.835 302.094 592.727 301.439 595.416 304.53C599.748 309.509 595.326 327.641 583.39 328.18C578.874 327.455 582.311 308.721 586.288 304.683Z" fill="#FFC999"/>
<path fill-rule="evenodd" clip-rule="evenodd" d="M633.489 1047.65C656.613 1057.63 668.48 1043.26 668.48 1043.26C668.48 1043.26 669.135 1038.24 665.09 1032.62C660.027 1025.59 648.75 1023.08 635.38 1009.63C625.11 999.293 618.332 983.209 618.332 983.209C610.913 972.003 587.256 985.345 587.256 985.345C587.256 985.345 586.856 1008.5 587.332 1021.74C587.332 1021.74 588.189 1029.04 605.933 1031.65C619.208 1033.6 619.641 1041.68 633.489 1047.65Z" fill="#2A84C6"/>
<path fill-rule="evenodd" clip-rule="evenodd" d="M633.489 1047.65C656.613 1057.63 668.48 1043.26 668.48 1043.26C668.48 1043.26 669.135 1038.24 665.09 1032.62C660.027 1025.59 648.75 1023.08 635.38 1009.63C625.11 999.293 618.332 983.209 618.332 983.209C610.913 972.003 587.256 985.345 587.256 985.345C587.256 985.345 586.856 1008.5 587.332 1021.74C587.332 1021.74 588.189 1029.04 605.933 1031.65C619.208 1033.6 619.641 1041.68 633.489 1047.65Z" fill="black" fill-opacity="0.2"/>
<path fill-rule="evenodd" clip-rule="evenodd" d="M499.064 979.108C499.064 979.108 500.058 1012.87 497.424 1021.77C489.801 1030.58 483.08 1026.49 472.961 1035.26C462.842 1044.03 441.553 1058.57 422.391 1043.37C420.056 1033.11 426.413 1028.5 434.285 1023.06C466.738 1000.62 461.07 996.568 466.983 983.543C476.053 963.559 499.284 965.068 499.064 979.108Z" fill="#2A84C6"/>
<path fill-rule="evenodd" clip-rule="evenodd" d="M499.064 979.108C499.064 979.108 500.058 1012.87 497.424 1021.77C489.801 1030.58 483.08 1026.49 472.961 1035.26C462.842 1044.03 441.553 1058.57 422.391 1043.37C420.056 1033.11 426.413 1028.5 434.285 1023.06C466.738 1000.62 461.07 996.568 466.983 983.543C476.053 963.559 499.284 965.068 499.064 979.108Z" fill="black" fill-opacity="0.2"/>
<path fill-rule="evenodd" clip-rule="evenodd" d="M598.555 531.663C598.555 531.663 609.26 476.823 613.999 456.564C618.735 436.303 625.931 387.798 617.752 384.166C609.571 380.534 589.986 372.822 589.986 372.822C589.986 372.822 570.557 375.375 553.007 379.199C539.115 382.227 543.059 368.88 526.216 371.727C519.083 372.934 496.697 376.544 485.521 382.783C481.039 385.285 481.762 400.477 481.126 415.245C479.094 462.38 490.333 534.599 490.333 534.599C490.333 534.599 483.668 541.608 491.748 550.698C495.751 554.954 513.086 553.512 535.275 553.567C560.534 553.63 590.246 556.876 595.758 551.961C606.114 542.729 598.555 531.663 598.555 531.663Z" fill="#1443BD"/>
<path fill-rule="evenodd" clip-rule="evenodd" d="M598.555 531.663C598.555 531.663 609.26 476.823 613.999 456.564C618.735 436.303 625.931 387.798 617.752 384.166C609.571 380.534 589.986 372.822 589.986 372.822C589.986 372.822 570.557 375.375 553.007 379.199C539.115 382.227 543.059 368.88 526.216 371.727C519.083 372.934 496.697 376.544 485.521 382.783C481.039 385.285 481.762 400.477 481.126 415.245C479.094 462.38 490.333 534.599 490.333 534.599C490.333 534.599 483.668 541.608 491.748 550.698C495.751 554.954 513.086 553.512 535.275 553.567C560.534 553.63 590.246 556.876 595.758 551.961C606.114 542.729 598.555 531.663 598.555 531.663Z" fill="white" fill-opacity="0.5"/>
<path fill-rule="evenodd" clip-rule="evenodd" d="M533.363 364.644L550.297 381.28L529.976 395.837L521.171 373.654L533.363 364.644Z" fill="#1443BD"/>
<path fill-rule="evenodd" clip-rule="evenodd" d="M533.363 364.644L550.297 381.28L529.976 395.837L521.171 373.654L533.363 364.644Z" fill="white" fill-opacity="0.5"/>
<path fill-rule="evenodd" clip-rule="evenodd" d="M579.661 990.71L544.065 645.892L542.647 645.177L505.282 991.504C505.282 991.504 477.424 998.11 462.702 989.068C462.128 921.918 477.579 703.79 484.118 604.176C485.17 588.138 489.987 566.339 490.949 560.279C535.676 552.545 596.271 563.699 596.271 563.699L598.889 571.74C599.398 573.304 599.707 574.931 599.804 576.576L627.889 987.305C627.889 987.305 600.36 997.503 579.661 990.71Z" fill="#2A84C6"/>
<path fill-rule="evenodd" clip-rule="evenodd" d="M579.661 990.71L544.065 645.892L542.647 645.177L505.282 991.504C505.282 991.504 477.424 998.11 462.702 989.068C462.128 921.918 477.579 703.79 484.118 604.176C485.17 588.138 489.987 566.339 490.949 560.279C535.676 552.545 596.271 563.699 596.271 563.699L598.889 571.74C599.398 573.304 599.707 574.931 599.804 576.576L627.889 987.305C627.889 987.305 600.36 997.503 579.661 990.71Z" fill="white" fill-opacity="0.85"/>
<path d="M519.843 631.828C519.522 631.668 519.136 631.804 518.979 632.132C518.84 632.424 518.929 632.769 519.176 632.955L519.276 633.016L546.232 646.497C546.553 646.657 546.94 646.521 547.096 646.193C547.236 645.902 547.146 645.556 546.899 645.371L546.8 645.309L519.843 631.828Z" fill="#1443BD"/>
<path d="M519.843 631.828C519.522 631.668 519.136 631.804 518.979 632.132C518.84 632.424 518.929 632.769 519.176 632.955L519.276 633.016L546.232 646.497C546.553 646.657 546.94 646.521 547.096 646.193C547.236 645.902 547.146 645.556 546.899 645.371L546.8 645.309L519.843 631.828Z" fill="white" fill-opacity="0.5"/>
<path fill-rule="evenodd" clip-rule="evenodd" d="M596.027 551.817C596.027 551.817 539.073 543.203 491.729 551.69C491.339 555.984 490.933 561.272 490.933 561.272C490.933 561.272 531.444 564.127 596.945 565.78C596.763 554.123 596.027 551.817 596.027 551.817Z" fill="#2A84C6"/>
<path fill-rule="evenodd" clip-rule="evenodd" d="M596.027 551.817C596.027 551.817 539.073 543.203 491.729 551.69C491.339 555.984 490.933 561.272 490.933 561.272C490.933 561.272 531.444 564.127 596.945 565.78C596.763 554.123 596.027 551.817 596.027 551.817Z" fill="white" fill-opacity="0.85"/>
<path d="M577.577 564.128C556.831 562.401 535.535 561.736 515.648 562.752C507.29 563.179 499.405 563.9 492.07 564.94C491.717 564.99 491.47 565.324 491.519 565.685C491.568 566.047 491.894 566.299 492.247 566.249C499.542 565.215 507.39 564.498 515.712 564.073C535.536 563.06 556.778 563.723 577.473 565.446L580.757 565.729C583.973 566.016 586.979 566.314 589.744 566.613L592.845 566.961L595.054 567.227C595.264 567.253 595.425 567.274 595.533 567.288C595.887 567.334 596.211 567.079 596.256 566.717C596.302 566.354 596.052 566.023 595.698 565.977L594.424 565.817C593.532 565.709 592.513 565.59 591.375 565.463L588.947 565.199C585.493 564.833 581.685 564.47 577.577 564.128Z" fill="#1443BD"/>
<path d="M577.577 564.128C556.831 562.401 535.535 561.736 515.648 562.752C507.29 563.179 499.405 563.9 492.07 564.94C491.717 564.99 491.47 565.324 491.519 565.685C491.568 566.047 491.894 566.299 492.247 566.249C499.542 565.215 507.39 564.498 515.712 564.073C535.536 563.06 556.778 563.723 577.473 565.446L580.757 565.729C583.973 566.016 586.979 566.314 589.744 566.613L592.845 566.961L595.054 567.227C595.264 567.253 595.425 567.274 595.533 567.288C595.887 567.334 596.211 567.079 596.256 566.717C596.302 566.354 596.052 566.023 595.698 565.977L594.424 565.817C593.532 565.709 592.513 565.59 591.375 565.463L588.947 565.199C585.493 564.833 581.685 564.47 577.577 564.128Z" fill="white" fill-opacity="0.5"/>
<path d="M577.806 549.573C557.06 547.846 535.764 547.181 515.876 548.197C507.519 548.624 499.633 549.345 492.299 550.384C491.945 550.435 491.699 550.768 491.748 551.13C491.796 551.492 492.123 551.744 492.476 551.694C499.771 550.66 507.619 549.942 515.941 549.517C535.764 548.505 557.007 549.168 577.701 550.891L579.906 551.079C583.168 551.363 586.224 551.66 589.042 551.958L592.557 552.345L595.762 552.732C596.116 552.779 596.439 552.523 596.485 552.161C596.53 551.799 596.28 551.468 595.927 551.421L594.652 551.262C593.909 551.172 593.078 551.074 592.163 550.97L589.176 550.643C585.722 550.277 581.913 549.915 577.806 549.573Z" fill="#1443BD"/>
<path d="M577.806 549.573C557.06 547.846 535.764 547.181 515.876 548.197C507.519 548.624 499.633 549.345 492.299 550.384C491.945 550.435 491.699 550.768 491.748 551.13C491.796 551.492 492.123 551.744 492.476 551.694C499.771 550.66 507.619 549.942 515.941 549.517C535.764 548.505 557.007 549.168 577.701 550.891L579.906 551.079C583.168 551.363 586.224 551.66 589.042 551.958L592.557 552.345L595.762 552.732C596.116 552.779 596.439 552.523 596.485 552.161C596.53 551.799 596.28 551.468 595.927 551.421L594.652 551.262C593.909 551.172 593.078 551.074 592.163 550.97L589.176 550.643C585.722 550.277 581.913 549.915 577.806 549.573Z" fill="white" fill-opacity="0.5"/>
<path d="M538.964 550.481C538.607 550.472 538.311 550.761 538.302 551.126L538.231 554.575C538.203 556.055 538.176 557.686 538.15 559.452C537.935 574.09 537.923 589.618 538.243 604.168L538.323 607.478C538.673 620.912 539.307 632.176 540.273 640.622C540.314 640.985 540.635 641.244 540.99 641.202C541.344 641.16 541.598 640.831 541.556 640.469L541.403 639.082C540.453 630.142 539.846 618.256 539.535 604.138C539.239 590.725 539.227 576.475 539.396 562.862L539.453 558.724L539.594 551.158C539.602 550.793 539.32 550.49 538.964 550.481Z" fill="#1443BD"/>
<path d="M538.964 550.481C538.607 550.472 538.311 550.761 538.302 551.126L538.231 554.575C538.203 556.055 538.176 557.686 538.15 559.452C537.935 574.09 537.923 589.618 538.243 604.168L538.323 607.478C538.673 620.912 539.307 632.176 540.273 640.622C540.314 640.985 540.635 641.244 540.99 641.202C541.344 641.16 541.598 640.831 541.556 640.469L541.403 639.082C540.453 630.142 539.846 618.256 539.535 604.138C539.239 590.725 539.227 576.475 539.396 562.862L539.453 558.724L539.594 551.158C539.602 550.793 539.32 550.49 538.964 550.481Z" fill="white" fill-opacity="0.5"/>
<path fill-rule="evenodd" clip-rule="evenodd" d="M527.89 555.263C527.865 556.906 528.857 558.256 530.108 558.278C531.356 558.298 532.39 556.982 532.416 555.337C532.441 553.693 531.45 552.344 530.2 552.322C528.949 552.301 527.916 553.618 527.89 555.263Z" fill="white"/>
<path fill-rule="evenodd" clip-rule="evenodd" d="M550.206 379.924L565.88 401.028L589.299 372.867L580.723 361.896L550.206 379.924Z" fill="#1443BD"/>
<path fill-rule="evenodd" clip-rule="evenodd" d="M550.206 379.924L565.88 401.028L589.299 372.867L580.723 361.896L550.206 379.924Z" fill="white" fill-opacity="0.5"/>
<path d="M549.502 381.065C549.056 380.897 548.56 381.131 548.396 381.588L548.234 382.081L548.073 382.608C548.016 382.798 547.956 383.004 547.894 383.226L547.798 383.57C547.405 384.996 546.975 386.75 546.516 388.855L546.262 390.039C544.725 397.355 543.189 407.027 541.752 419.36L541.369 422.726C539.825 436.67 538.498 453.05 537.452 472.061L537.365 473.651C535.805 502.628 536.166 527.487 537.525 546.069C537.56 546.555 537.974 546.919 538.448 546.883C538.923 546.846 539.279 546.423 539.243 545.938L539.109 544.034C537.889 526.065 537.593 502.509 539.008 475.214L539.085 473.748C540.143 454.092 541.498 437.222 543.081 422.925L543.34 420.63C544.807 407.84 546.378 397.877 547.947 390.41L548.197 389.242C548.608 387.355 548.995 385.76 549.351 384.438L549.456 384.049C549.583 383.591 549.697 383.196 549.799 382.861L549.975 382.309C549.991 382.259 550.004 382.222 550.013 382.197C550.178 381.74 549.949 381.233 549.502 381.065Z" fill="#1443BD"/>
<path d="M549.502 381.065C549.056 380.897 548.56 381.131 548.396 381.588L548.234 382.081L548.073 382.608C548.016 382.798 547.956 383.004 547.894 383.226L547.798 383.57C547.405 384.996 546.975 386.75 546.516 388.855L546.262 390.039C544.725 397.355 543.189 407.027 541.752 419.36L541.369 422.726C539.825 436.67 538.498 453.05 537.452 472.061L537.365 473.651C535.805 502.628 536.166 527.487 537.525 546.069C537.56 546.555 537.974 546.919 538.448 546.883C538.923 546.846 539.279 546.423 539.243 545.938L539.109 544.034C537.889 526.065 537.593 502.509 539.008 475.214L539.085 473.748C540.143 454.092 541.498 437.222 543.081 422.925L543.34 420.63C544.807 407.84 546.378 397.877 547.947 390.41L548.197 389.242C548.608 387.355 548.995 385.76 549.351 384.438L549.456 384.049C549.583 383.591 549.697 383.196 549.799 382.861L549.975 382.309C549.991 382.259 550.004 382.222 550.013 382.197C550.178 381.74 549.949 381.233 549.502 381.065Z" fill="black" fill-opacity="0.5"/>
<path d="M481 411.796C480.58 411.436 479.988 411.5 479.645 411.926C479.5 412.107 479.421 412.31 479.359 412.575C479.288 412.877 479.237 413.3 479.199 413.854L479.182 414.143C479.119 415.308 479.108 417.003 479.151 419.173L479.175 420.208C479.316 425.711 479.751 433.595 480.452 443.062L480.713 446.513C482.462 469.068 485.381 497.068 489.301 527.488L489.72 530.707L489.56 531.128L489.421 531.509C489.135 532.31 488.85 533.196 488.583 534.143C487.936 536.443 487.504 538.727 487.388 540.877C487.194 544.468 487.898 547.391 489.766 549.365C490.097 549.715 490.643 549.724 490.984 549.385C491.326 549.046 491.335 548.488 491.004 548.138C489.531 546.582 488.939 544.122 489.108 540.974C489.216 538.973 489.625 536.813 490.239 534.631C490.443 533.907 490.659 533.22 490.876 532.583L491.17 531.757C491.27 531.487 491.348 531.288 491.397 531.168C491.457 531.023 491.478 530.864 491.457 530.708L490.789 525.54C486.911 495.242 484.036 467.423 482.334 445.105L482.103 442.021C481.488 433.587 481.089 426.466 480.928 421.25L480.875 419.206C480.835 417.198 480.84 415.609 480.89 414.49L480.902 414.241C480.922 413.88 480.947 413.582 480.975 413.352L481.005 413.14L481.018 413.131L481.107 413.038C481.413 412.664 481.365 412.108 481 411.796Z" fill="#1443BD"/>
<path d="M481 411.796C480.58 411.436 479.988 411.5 479.645 411.926C479.5 412.107 479.421 412.31 479.359 412.575C479.288 412.877 479.237 413.3 479.199 413.854L479.182 414.143C479.119 415.308 479.108 417.003 479.151 419.173L479.175 420.208C479.316 425.711 479.751 433.595 480.452 443.062L480.713 446.513C482.462 469.068 485.381 497.068 489.301 527.488L489.72 530.707L489.56 531.128L489.421 531.509C489.135 532.31 488.85 533.196 488.583 534.143C487.936 536.443 487.504 538.727 487.388 540.877C487.194 544.468 487.898 547.391 489.766 549.365C490.097 549.715 490.643 549.724 490.984 549.385C491.326 549.046 491.335 548.488 491.004 548.138C489.531 546.582 488.939 544.122 489.108 540.974C489.216 538.973 489.625 536.813 490.239 534.631C490.443 533.907 490.659 533.22 490.876 532.583L491.17 531.757C491.27 531.487 491.348 531.288 491.397 531.168C491.457 531.023 491.478 530.864 491.457 530.708L490.789 525.54C486.911 495.242 484.036 467.423 482.334 445.105L482.103 442.021C481.488 433.587 481.089 426.466 480.928 421.25L480.875 419.206C480.835 417.198 480.84 415.609 480.89 414.49L480.902 414.241C480.922 413.88 480.947 413.582 480.975 413.352L481.005 413.14L481.018 413.131L481.107 413.038C481.413 412.664 481.365 412.108 481 411.796Z" fill="black" fill-opacity="0.5"/>
<path d="M524.91 407.979L526.094 408.083C526.477 408.118 526.847 408.154 527.205 408.19L528.952 408.381L529.486 408.447C529.958 408.509 530.302 408.936 530.272 409.422L528.186 442.314C528.166 442.627 527.993 442.907 527.726 443.06L510.314 453.029C510.015 453.2 509.648 453.183 509.365 452.986L495.916 443.589C495.67 443.418 495.523 443.133 495.522 442.829L495.534 436.843L495.555 433.025C495.597 426.411 495.677 419.049 495.802 411.07C495.807 410.715 496.012 410.394 496.328 410.246C499.724 408.653 504.63 407.816 510.674 407.58C515.241 407.402 520.124 407.578 524.91 407.979ZM510.1 409.453C504.994 409.693 500.791 410.39 497.802 411.609L497.597 411.694L497.484 419.802C497.432 424.016 497.394 428.02 497.368 431.789L497.331 438.922L497.327 442.338L509.921 451.137L526.417 441.693L528.417 410.176L528.045 410.135C527.067 410.028 525.965 409.92 524.763 409.819C520.043 409.423 515.228 409.25 510.743 409.425L510.1 409.453Z" fill="#1443BD"/>
<path d="M524.91 407.979L526.094 408.083C526.477 408.118 526.847 408.154 527.205 408.19L528.952 408.381L529.486 408.447C529.958 408.509 530.302 408.936 530.272 409.422L528.186 442.314C528.166 442.627 527.993 442.907 527.726 443.06L510.314 453.029C510.015 453.2 509.648 453.183 509.365 452.986L495.916 443.589C495.67 443.418 495.523 443.133 495.522 442.829L495.534 436.843L495.555 433.025C495.597 426.411 495.677 419.049 495.802 411.07C495.807 410.715 496.012 410.394 496.328 410.246C499.724 408.653 504.63 407.816 510.674 407.58C515.241 407.402 520.124 407.578 524.91 407.979ZM510.1 409.453C504.994 409.693 500.791 410.39 497.802 411.609L497.597 411.694L497.484 419.802C497.432 424.016 497.394 428.02 497.368 431.789L497.331 438.922L497.327 442.338L509.921 451.137L526.417 441.693L528.417 410.176L528.045 410.135C527.067 410.028 525.965 409.92 524.763 409.819C520.043 409.423 515.228 409.25 510.743 409.425L510.1 409.453Z" fill="black" fill-opacity="0.5"/>
<path fill-rule="evenodd" clip-rule="evenodd" d="M548.985 395.787C548.96 397.432 550.025 398.782 551.364 398.804C552.702 398.826 553.808 397.512 553.835 395.866C553.861 394.223 552.796 392.872 551.457 392.849C550.117 392.827 549.011 394.142 548.985 395.787Z" fill="white"/>
<path fill-rule="evenodd" clip-rule="evenodd" d="M545.116 426C545.091 427.643 546.156 428.995 547.494 429.017C548.833 429.039 549.939 427.724 549.966 426.079C549.992 424.436 548.927 423.084 547.588 423.062C546.248 423.04 545.142 424.355 545.116 426Z" fill="white"/>
<path fill-rule="evenodd" clip-rule="evenodd" d="M542.663 458.718C542.638 460.363 543.703 461.713 545.041 461.735C546.38 461.757 547.486 460.443 547.513 458.798C547.538 457.154 546.474 455.803 545.135 455.781C543.795 455.758 542.688 457.075 542.663 458.718Z" fill="white"/>
<path fill-rule="evenodd" clip-rule="evenodd" d="M541.694 489.476C541.669 491.119 542.734 492.471 544.073 492.493C545.411 492.515 546.517 491.201 546.544 489.555C546.57 487.912 545.505 486.561 544.166 486.538C542.828 486.516 541.721 487.831 541.694 489.476Z" fill="white"/>
<path fill-rule="evenodd" clip-rule="evenodd" d="M541.542 530.173C541.517 531.818 542.581 533.168 543.92 533.19C545.259 533.212 546.365 531.897 546.392 530.252C546.417 528.609 545.353 527.257 544.014 527.235C542.673 527.213 541.567 528.528 541.542 530.173Z" fill="white"/>
<path d="M589.553 373.055C589.223 372.769 588.744 372.781 588.428 373.064L588.339 373.158L566.362 399.678L550.672 381C550.39 380.665 549.915 380.599 549.56 380.829L549.457 380.907C549.129 381.195 549.065 381.681 549.289 382.045L549.365 382.15L565.713 401.611C566.029 401.988 566.579 402.017 566.932 401.701L567.023 401.607L589.653 374.298C589.961 373.927 589.916 373.37 589.553 373.055Z" fill="#1443BD"/>
<path d="M589.553 373.055C589.223 372.769 588.744 372.781 588.428 373.064L588.339 373.158L566.362 399.678L550.672 381C550.39 380.665 549.915 380.599 549.56 380.829L549.457 380.907C549.129 381.195 549.065 381.681 549.289 382.045L549.365 382.15L565.713 401.611C566.029 401.988 566.579 402.017 566.932 401.701L567.023 401.607L589.653 374.298C589.961 373.927 589.916 373.37 589.553 373.055Z" fill="black" fill-opacity="0.5"/>
<path d="M523.95 374.25C523.806 373.786 523.321 373.529 522.868 373.677C522.452 373.812 522.207 374.24 522.28 374.668L522.308 374.785L529.155 396.797C529.325 397.341 529.939 397.571 530.405 397.295L530.502 397.228L549.903 381.933C550.279 381.636 550.35 381.082 550.059 380.696C549.795 380.346 549.324 380.254 548.957 380.464L548.851 380.536L530.425 395.063L523.95 374.25Z" fill="#1443BD"/>
<path d="M523.95 374.25C523.806 373.786 523.321 373.529 522.868 373.677C522.452 373.812 522.207 374.24 522.28 374.668L522.308 374.785L529.155 396.797C529.325 397.341 529.939 397.571 530.405 397.295L530.502 397.228L549.903 381.933C550.279 381.636 550.35 381.082 550.059 380.696C549.795 380.346 549.324 380.254 548.957 380.464L548.851 380.536L530.425 395.063L523.95 374.25Z" fill="black" fill-opacity="0.5"/>
<path d="M524.793 563.221C524.44 563.167 524.111 563.416 524.058 563.777L523.892 565.039L523.852 565.362C523.698 566.628 523.544 568.061 523.4 569.633C522.744 576.808 522.52 584.21 522.987 591.132C524.076 607.279 528.667 617.525 537.986 618.824C538.339 618.873 538.665 618.62 538.713 618.258C538.761 617.896 538.513 617.563 538.16 617.514C529.679 616.332 525.326 606.618 524.276 591.04C523.815 584.2 524.036 576.866 524.686 569.756L524.811 568.455C524.895 567.612 524.982 566.816 525.069 566.073L525.211 564.908L525.336 563.972C525.389 563.611 525.145 563.275 524.793 563.221Z" fill="#1443BD"/>
<path d="M524.793 563.221C524.44 563.167 524.111 563.416 524.058 563.777L523.892 565.039L523.852 565.362C523.698 566.628 523.544 568.061 523.4 569.633C522.744 576.808 522.52 584.21 522.987 591.132C524.076 607.279 528.667 617.525 537.986 618.824C538.339 618.873 538.665 618.62 538.713 618.258C538.761 617.896 538.513 617.563 538.16 617.514C529.679 616.332 525.326 606.618 524.276 591.04C523.815 584.2 524.036 576.866 524.686 569.756L524.811 568.455C524.895 567.612 524.982 566.816 525.069 566.073L525.211 564.908L525.336 563.972C525.389 563.611 525.145 563.275 524.793 563.221Z" fill="white" fill-opacity="0.5"/>
<path d="M591.666 307.188C591.532 306.849 591.155 306.686 590.824 306.823L590.598 306.925C590.464 306.99 590.299 307.075 590.11 307.182C589.592 307.474 589.074 307.829 588.587 308.249C586.799 309.794 585.902 311.797 586.454 314.221C586.662 315.14 587.075 315.63 587.842 316.098L588.173 316.288C588.832 316.656 588.996 316.839 589.057 317.411C589.173 318.51 588.685 319.33 587.747 319.96C587.436 320.169 587.097 320.339 586.759 320.471L586.456 320.579C586.404 320.596 586.361 320.608 586.33 320.616C585.984 320.702 585.772 321.06 585.856 321.415C585.941 321.769 586.291 321.987 586.637 321.9C587.107 321.782 587.778 321.521 588.456 321.065C589.765 320.187 590.516 318.923 590.341 317.268C590.233 316.245 589.842 315.75 588.984 315.238L588.665 315.056C588.058 314.714 587.839 314.482 587.712 313.922C587.284 312.044 587.97 310.512 589.421 309.259C589.837 308.899 590.286 308.592 590.734 308.339C591 308.189 591.203 308.092 591.309 308.048C591.64 307.911 591.799 307.526 591.666 307.188Z" fill="#DD936F"/>
<path d="M513.323 643.098C512.967 643.075 512.66 643.351 512.637 643.716C512.617 644.044 512.834 644.331 513.137 644.402L513.241 644.417L534.559 645.808C534.915 645.831 535.222 645.555 535.245 645.19C535.265 644.862 535.048 644.575 534.745 644.504L534.641 644.488L513.323 643.098Z" fill="#1443BD"/>
<path d="M513.323 643.098C512.967 643.075 512.66 643.351 512.637 643.716C512.617 644.044 512.834 644.331 513.137 644.402L513.241 644.417L534.559 645.808C534.915 645.831 535.222 645.555 535.245 645.19C535.265 644.862 535.048 644.575 534.745 644.504L534.641 644.488L513.323 643.098Z" fill="white" fill-opacity="0.5"/>
<path fill-rule="evenodd" clip-rule="evenodd" d="M364.719 366.13C364.719 366.13 346.159 309.515 325.146 295.774C318.89 296.011 324.756 304.443 329.11 311.343C331.337 314.872 332.805 319.329 332.805 319.329C332.805 319.329 324.226 318.411 325.871 325.864C318.997 325.524 321.485 333.397 321.485 333.397C321.485 333.397 316.2 333.408 317.9 340.722C319.067 345.749 325.687 351.684 327.205 356.974C333.056 377.373 342.668 378.501 346.527 379.127C356.296 380.708 362.294 376.902 364.719 366.13Z" fill="#FFC999"/>
<path d="M352.661 340.564L345.139 323.894L344.951 323.172C343.287 317.056 340.649 314.552 338.39 316.76C336.447 318.659 336.104 323.506 337.844 327.912C341.308 336.682 341.657 340.74 340.412 345.526L340.001 347.057C339.769 347.963 339.635 348.691 339.58 349.463C339.34 352.774 339.498 355.858 340.399 358.833C341.715 363.179 344.436 366.242 348.859 367.478C349.203 367.574 349.558 367.366 349.652 367.014C349.746 366.662 349.543 366.298 349.199 366.202C342.2 364.247 340.268 357.864 340.868 349.56C340.91 348.977 341.004 348.413 341.165 347.738L341.342 347.042C341.399 346.83 341.469 346.571 341.575 346.187L341.74 345.553C342.963 340.615 342.535 336.26 339.042 327.417C337.48 323.463 337.784 319.181 339.282 317.716C340.492 316.534 342.278 318.238 343.73 323.582L343.926 324.333L351.488 341.117C351.637 341.449 352.021 341.594 352.345 341.441C352.633 341.305 352.777 340.98 352.7 340.676L352.661 340.564Z" fill="#DD936F"/>
<path d="M325.586 325.27C325.266 325.431 325.133 325.827 325.29 326.155L325.535 326.653C325.731 327.046 325.955 327.484 326.203 327.954C326.911 329.3 327.67 330.647 328.451 331.906C329.287 333.253 330.101 334.422 330.877 335.36C332.46 337.274 333.843 338.211 335.11 337.814C337.957 336.922 338.83 334.778 338.118 331.99C337.848 330.935 337.363 329.827 336.726 328.701C336.378 328.087 336.007 327.506 335.634 326.974L335.337 326.56C335.252 326.445 335.182 326.354 335.13 326.289C334.905 326.005 334.498 325.963 334.221 326.193C333.944 326.423 333.902 326.84 334.128 327.123L334.393 327.476C334.451 327.556 334.515 327.646 334.584 327.745C334.934 328.243 335.283 328.789 335.608 329.364C336.192 330.395 336.631 331.4 336.868 332.325C337.419 334.481 336.846 335.887 334.732 336.55C334.156 336.731 333.126 336.033 331.863 334.506C331.13 333.62 330.349 332.498 329.542 331.197C328.779 329.968 328.035 328.648 327.34 327.328L326.994 326.661L326.451 325.573C326.294 325.245 325.907 325.11 325.586 325.27Z" fill="#DD936F"/>
<path d="M322.417 333.565C322.303 333.22 321.936 333.034 321.598 333.151C321.261 333.268 321.079 333.644 321.194 333.989L321.34 334.403L321.531 334.911C321.6 335.089 321.675 335.275 321.754 335.467C322.206 336.567 322.73 337.667 323.319 338.698C325.151 341.898 327.22 343.789 329.579 343.598C331.9 343.411 332.984 341.857 333.046 339.569C333.069 338.735 332.956 337.857 332.756 336.987C332.647 336.511 332.537 336.141 332.46 335.922C332.34 335.578 331.971 335.399 331.635 335.522C331.299 335.645 331.124 336.023 331.244 336.367L331.316 336.59C331.369 336.769 331.434 337.007 331.499 337.289C331.675 338.058 331.774 338.828 331.755 339.532C331.709 341.209 331.05 342.153 329.477 342.28C327.774 342.418 326.037 340.83 324.434 338.029C323.876 337.054 323.376 336.004 322.944 334.954L322.732 334.424L322.467 333.709C322.445 333.646 322.428 333.598 322.417 333.565Z" fill="#DD936F"/>
<path d="M317.562 338.992C317.215 339.079 317.003 339.436 317.088 339.791L317.187 340.169L317.369 340.796C317.402 340.907 317.438 341.02 317.475 341.137C317.797 342.138 318.183 343.139 318.637 344.078C320.322 347.559 322.509 349.372 325.223 348.307C327.146 347.552 327.9 346.14 327.61 344.397C327.467 343.544 327.087 342.663 326.544 341.779C326.306 341.392 326.052 341.03 325.798 340.702L325.558 340.403C325.515 340.351 325.478 340.307 325.448 340.274C325.208 340.004 324.799 339.985 324.535 340.231C324.272 340.477 324.253 340.895 324.493 341.165L324.64 341.339C324.682 341.392 324.731 341.453 324.785 341.523C325.012 341.816 325.239 342.139 325.45 342.483C325.911 343.232 326.227 343.964 326.336 344.62C326.525 345.751 326.099 346.547 324.761 347.073C322.88 347.811 321.219 346.434 319.795 343.491C319.371 342.614 319.006 341.67 318.703 340.725C318.632 340.504 318.568 340.294 318.511 340.097L318.343 339.477C318.267 339.161 317.983 338.955 317.677 338.974L317.562 338.992Z" fill="#DD936F"/>
<path d="M419.812 435.474C419.405 435.727 419.275 436.269 419.522 436.685L420.497 438.303L421.416 439.799C422.166 441.012 422.984 442.318 423.863 443.697C427.211 448.951 430.748 454.206 434.315 459.113C436.9 462.667 439.406 465.908 441.804 468.763C446.374 474.204 450.419 478.1 453.836 480.154C454.074 480.298 454.363 480.314 454.612 480.204L454.733 480.139L482.931 461.855C483.333 461.595 483.453 461.05 483.198 460.639C482.967 460.265 482.506 460.13 482.122 460.304L482.009 460.366L454.264 478.356L454.033 478.208C451.063 476.248 447.532 472.819 443.57 468.157L443.111 467.613C440.742 464.792 438.259 461.584 435.698 458.06C432.154 453.186 428.636 447.96 425.306 442.734L424.453 441.387C423.758 440.286 423.108 439.241 422.506 438.262L421.607 436.789L420.996 435.772C420.749 435.355 420.219 435.222 419.812 435.474Z" fill="#1443BD"/>
<path d="M419.812 435.474C419.405 435.727 419.275 436.269 419.522 436.685L420.497 438.303L421.416 439.799C422.166 441.012 422.984 442.318 423.863 443.697C427.211 448.951 430.748 454.206 434.315 459.113C436.9 462.667 439.406 465.908 441.804 468.763C446.374 474.204 450.419 478.1 453.836 480.154C454.074 480.298 454.363 480.314 454.612 480.204L454.733 480.139L482.931 461.855C483.333 461.595 483.453 461.05 483.198 460.639C482.967 460.265 482.506 460.13 482.122 460.304L482.009 460.366L454.264 478.356L454.033 478.208C451.063 476.248 447.532 472.819 443.57 468.157L443.111 467.613C440.742 464.792 438.259 461.584 435.698 458.06C432.154 453.186 428.636 447.96 425.306 442.734L424.453 441.387C423.758 440.286 423.108 439.241 422.506 438.262L421.607 436.789L420.996 435.772C420.749 435.355 420.219 435.222 419.812 435.474Z" fill="black" fill-opacity="0.5"/>
<path d="M407.855 438.621C407.689 438.298 407.298 438.174 406.983 438.344C406.702 438.495 406.575 438.827 406.666 439.126L406.711 439.236L421.862 468.744C422.028 469.067 422.419 469.191 422.734 469.021C423.015 468.87 423.142 468.538 423.051 468.239L423.006 468.129L407.855 438.621Z" fill="#DD936F"/>
<path fill-rule="evenodd" clip-rule="evenodd" d="M656.721 537.945C668.027 533.124 673.689 520.111 669.623 508.288L632.797 401.189C627.38 385.439 610.14 377.584 595.077 384.006C580.192 390.352 573.449 408.091 580.229 423.061L626.888 526.069C632.102 537.583 645.274 542.825 656.721 537.945Z" fill="#FFC999"/>
<path fill-rule="evenodd" clip-rule="evenodd" d="M655.195 465.676L632.123 397.724C625.507 382.957 601.179 377.098 586.867 384.131C572.557 391.164 566.664 408.842 573.791 423.358L606.352 489.681C606.352 489.681 642.901 480.968 655.195 465.676Z" fill="#1443BD"/>
<path fill-rule="evenodd" clip-rule="evenodd" d="M655.195 465.676L632.123 397.724C625.507 382.957 601.179 377.098 586.867 384.131C572.557 391.164 566.664 408.842 573.791 423.358L606.352 489.681C606.352 489.681 642.901 480.968 655.195 465.676Z" fill="white" fill-opacity="0.5"/>
<path d="M588.934 439.624C588.747 439.176 588.241 438.967 587.803 439.158C587.405 439.331 587.201 439.775 587.307 440.19L587.348 440.314L607.67 489.181C607.845 489.6 608.302 489.815 608.726 489.675L610.519 489.068L612.179 488.49C613.523 488.016 614.97 487.494 616.499 486.928C622.324 484.771 628.15 482.417 633.59 479.945L635.161 479.223C643.427 475.376 649.907 471.615 653.996 468.04C654.672 467.449 655.281 466.864 655.82 466.285C656.149 465.933 656.136 465.375 655.792 465.038C655.447 464.702 654.902 464.715 654.574 465.068C654.076 465.602 653.51 466.146 652.877 466.699C648.69 470.36 641.767 474.3 632.891 478.333C627.491 480.787 621.702 483.126 615.913 485.27L614.421 485.818C613.201 486.262 612.043 486.675 610.958 487.054L608.947 487.746L588.934 439.624Z" fill="#1443BD"/>
<path d="M588.934 439.624C588.747 439.176 588.241 438.967 587.803 439.158C587.405 439.331 587.201 439.775 587.307 440.19L587.348 440.314L607.67 489.181C607.845 489.6 608.302 489.815 608.726 489.675L610.519 489.068L612.179 488.49C613.523 488.016 614.97 487.494 616.499 486.928C622.324 484.771 628.15 482.417 633.59 479.945L635.161 479.223C643.427 475.376 649.907 471.615 653.996 468.04C654.672 467.449 655.281 466.864 655.82 466.285C656.149 465.933 656.136 465.375 655.792 465.038C655.447 464.702 654.902 464.715 654.574 465.068C654.076 465.602 653.51 466.146 652.877 466.699C648.69 470.36 641.767 474.3 632.891 478.333C627.491 480.787 621.702 483.126 615.913 485.27L614.421 485.818C613.201 486.262 612.043 486.675 610.958 487.054L608.947 487.746L588.934 439.624Z" fill="black" fill-opacity="0.5"/>
<path fill-rule="evenodd" clip-rule="evenodd" d="M514.873 525.125C515.537 532.005 521.12 537.293 527.875 537.442L646.618 540.064C660.254 540.365 671.168 528.561 670.12 514.645C669.097 501.044 657.053 491.158 643.856 493.086L526.276 510.252C519.196 511.286 514.169 517.843 514.873 525.125Z" fill="#FFC999"/>
<path fill-rule="evenodd" clip-rule="evenodd" d="M524.591 556.371L498.484 472.801C498.053 471.422 496.812 470.48 495.397 470.462L422.19 469.448C419.916 469.417 418.3 471.701 419.038 473.901L446.29 555.253C446.729 556.562 447.905 557.461 449.255 557.522L521.316 560.757C523.602 560.858 525.288 558.602 524.591 556.371Z" fill="#2A84C6"/>
<path fill-rule="evenodd" clip-rule="evenodd" d="M524.591 556.371L498.484 472.801C498.053 471.422 496.812 470.48 495.397 470.462L422.19 469.448C419.916 469.417 418.3 471.701 419.038 473.901L446.29 555.253C446.729 556.562 447.905 557.461 449.255 557.522L521.316 560.757C523.602 560.858 525.288 558.602 524.591 556.371Z" fill="black" fill-opacity="0.2"/>
<path fill-rule="evenodd" clip-rule="evenodd" d="M520.733 555.353L495.081 473.237C494.559 471.57 493.055 470.429 491.342 470.405L417.231 469.378C415.641 469.358 414.51 470.955 415.026 472.493L442.658 554.971C443.143 556.42 444.444 557.417 445.94 557.484L516.767 560.663C519.535 560.787 521.578 558.052 520.733 555.353Z" fill="#1443BD"/>
<path fill-rule="evenodd" clip-rule="evenodd" d="M520.733 555.353L495.081 473.237C494.559 471.57 493.055 470.429 491.342 470.405L417.231 469.378C415.641 469.358 414.51 470.955 415.026 472.493L442.658 554.971C443.143 556.42 444.444 557.417 445.94 557.484L516.767 560.663C519.535 560.787 521.578 558.052 520.733 555.353Z" fill="black" fill-opacity="0.5"/>
<path fill-rule="evenodd" clip-rule="evenodd" d="M485.045 478.318C484.217 479.261 484.514 480.918 485.711 482.02C486.907 483.12 488.549 483.248 489.379 482.306C490.207 481.363 489.909 479.705 488.713 478.604C487.517 477.502 485.873 477.374 485.045 478.318Z" fill="#2A84C6"/>
<path fill-rule="evenodd" clip-rule="evenodd" d="M485.045 478.318C484.217 479.261 484.514 480.918 485.711 482.02C486.907 483.12 488.549 483.248 489.379 482.306C490.207 481.363 489.909 479.705 488.713 478.604C487.517 477.502 485.873 477.374 485.045 478.318Z" fill="white" fill-opacity="0.85"/>
<path fill-rule="evenodd" clip-rule="evenodd" d="M486.029 479.304C485.598 479.794 485.753 480.654 486.373 481.226C486.996 481.797 487.847 481.863 488.279 481.374C488.708 480.885 488.553 480.024 487.932 479.452C487.312 478.881 486.458 478.815 486.029 479.304Z" fill="#2A84C6"/>
<path fill-rule="evenodd" clip-rule="evenodd" d="M486.029 479.304C485.598 479.794 485.753 480.654 486.373 481.226C486.996 481.797 487.847 481.863 488.279 481.374C488.708 480.885 488.553 480.024 487.932 479.452C487.312 478.881 486.458 478.815 486.029 479.304Z" fill="white" fill-opacity="0.85"/>
<path fill-rule="evenodd" clip-rule="evenodd" d="M492.003 540.657C487.797 540.24 485.585 538.439 485.984 534.854C480.924 533.225 481.489 528.84 481.489 528.84C481.489 528.84 471.751 528.687 470.113 524.429C469.476 522.774 470.712 521.006 472.444 520.886C493.308 519.438 508.184 508.125 508.184 508.125C508.184 508.125 499.982 495.8 500.85 490.111C501.106 488.429 503.255 487.886 504.26 489.244C512.861 500.859 530.109 509.968 530.109 509.968C530.109 509.968 550.814 529.819 528.355 538.82C528.355 538.82 511.234 545.801 499.314 544.917C493.67 544.499 492.003 540.657 492.003 540.657Z" fill="#FFC999"/>
<path d="M496.834 525.056C496.66 524.738 496.266 524.624 495.955 524.802C494.461 525.657 492.715 526.353 490.768 526.903C488.447 527.559 485.955 527.978 483.447 528.206L482.684 528.27C481.702 528.345 480.86 528.379 480.204 528.387L479.718 528.388C479.362 528.384 479.069 528.675 479.064 529.04C479.06 529.369 479.29 529.645 479.596 529.7L479.701 529.71L479.967 529.711C480.84 529.708 482.077 529.658 483.561 529.523C486.141 529.289 488.708 528.857 491.111 528.178C493.153 527.601 494.993 526.867 496.585 525.956C496.897 525.778 497.008 525.375 496.834 525.056Z" fill="#DD936F"/>
<path d="M498.797 531.618C498.642 531.289 498.255 531.151 497.934 531.31C497.742 531.405 497.548 531.498 497.352 531.588C494.875 532.732 492.214 533.466 489.543 533.868C487.893 534.117 486.571 534.197 485.748 534.191C485.381 534.186 485.088 534.478 485.083 534.843C485.079 535.172 485.31 535.447 485.616 535.503L485.72 535.513H485.952L486.43 535.502C487.282 535.471 488.408 535.376 489.731 535.176C492.513 534.757 495.287 533.992 497.883 532.794C498.089 532.698 498.294 532.601 498.496 532.5C498.818 532.342 498.952 531.946 498.797 531.618Z" fill="#DD936F"/>
<path d="M502.51 538.948C502.354 538.619 501.968 538.482 501.647 538.641C500.96 538.981 499.338 539.298 497.131 539.559C496.003 539.692 494.793 539.803 493.582 539.892L491.97 539.997C491.613 540.016 491.339 540.327 491.357 540.691C491.375 541.056 491.679 541.336 492.035 541.318L493.359 541.234L493.675 541.211C494.903 541.12 496.131 541.007 497.279 540.872L498.085 540.771C500.028 540.514 501.444 540.21 502.209 539.831C502.531 539.672 502.665 539.277 502.51 538.948Z" fill="#DD936F"/>
<path d="M643.768 492.43L529.121 508.457C528.768 508.507 528.52 508.84 528.569 509.202C528.612 509.527 528.88 509.765 529.191 509.773L529.296 509.767L643.943 493.74C644.297 493.691 644.544 493.357 644.496 492.996C644.452 492.67 644.184 492.433 643.873 492.424L643.768 492.43Z" fill="#DD936F"/>
<g filter="url(#filter1_ddddd_197_1619)">
<path d="M172.828 350.421H74.101C72.1532 350.421 70.5742 352.037 70.5742 354.03V424.005C70.5742 425.999 72.1532 427.615 74.101 427.615H172.828C174.776 427.615 176.355 425.999 176.355 424.005V354.03C176.355 352.037 174.776 350.421 172.828 350.421Z" fill="white"/>
</g>
<path d="M156.516 418.274C158.046 418.274 159.287 415.595 159.287 412.29C159.287 408.985 158.046 406.306 156.516 406.306C154.986 406.306 153.746 408.985 153.746 412.29C153.746 415.595 154.986 418.274 156.516 418.274Z" fill="white"/>
<path d="M176.305 374.027H70.625V385.222H176.305V374.027Z" fill="#1443BD"/>
<path d="M176.305 374.027H70.625V385.222H176.305V374.027Z" fill="black" fill-opacity="0.5"/>
<path d="M114.73 396.822H79.2947C78.6455 396.822 78.1191 397.361 78.1191 398.025V399.486C78.1191 400.15 78.6455 400.689 79.2947 400.689H114.73C115.38 400.689 115.906 400.15 115.906 399.486V398.025C115.906 397.361 115.38 396.822 114.73 396.822Z" fill="#1443BD"/>
<path d="M114.73 396.822H79.2947C78.6455 396.822 78.1191 397.361 78.1191 398.025V399.486C78.1191 400.15 78.6455 400.689 79.2947 400.689H114.73C115.38 400.689 115.906 400.15 115.906 399.486V398.025C115.906 397.361 115.38 396.822 114.73 396.822Z" fill="white" fill-opacity="0.2"/>
<path d="M99.7338 408.423H79.2947C78.6455 408.423 78.1191 408.962 78.1191 409.626V411.087C78.1191 411.752 78.6455 412.29 79.2947 412.29H99.7338C100.383 412.29 100.909 411.752 100.909 411.087V409.626C100.909 408.962 100.383 408.423 99.7338 408.423Z" fill="#1443BD"/>
<path d="M99.7338 408.423H79.2947C78.6455 408.423 78.1191 408.962 78.1191 409.626V411.087C78.1191 411.752 78.6455 412.29 79.2947 412.29H99.7338C100.383 412.29 100.909 411.752 100.909 411.087V409.626C100.909 408.962 100.383 408.423 99.7338 408.423Z" fill="white" fill-opacity="0.2"/>
<path d="M88.3387 358.2H79.2947C78.6455 358.2 78.1191 358.738 78.1191 359.403V364.684C78.1191 365.349 78.6455 365.887 79.2947 365.887H88.3387C88.9879 365.887 89.5142 365.349 89.5142 364.684V359.403C89.5142 358.738 88.9879 358.2 88.3387 358.2Z" fill="#1443BD"/>
<path d="M153.746 412.29C153.744 409.97 154.762 407.773 156.518 406.306C153.439 403.724 148.931 404.028 146.21 407.002C143.49 409.976 143.49 414.599 146.21 417.573C148.931 420.546 153.439 420.851 156.518 418.269C154.763 416.803 153.745 414.608 153.746 412.29Z" fill="#F56D7E"/>
<path d="M161.304 404.557C159.558 404.554 157.866 405.173 156.518 406.306C158.269 407.775 159.285 409.971 159.285 412.288C159.285 414.605 158.269 416.8 156.518 418.269C159.092 420.43 162.745 420.613 165.512 418.719C168.28 416.824 169.51 413.3 168.541 410.04C167.573 406.78 164.633 404.553 161.304 404.557Z" fill="#B7EE81"/>
<path d="M161.304 404.557C159.558 404.554 157.866 405.173 156.518 406.306C158.269 407.775 159.285 409.971 159.285 412.288C159.285 414.605 158.269 416.8 156.518 418.269C159.092 420.43 162.745 420.613 165.512 418.719C168.28 416.824 169.51 413.3 168.541 410.04C167.573 406.78 164.633 404.553 161.304 404.557Z" fill="white" fill-opacity="0.2"/>
<path fill-rule="evenodd" clip-rule="evenodd" d="M410.059 247.839C420.966 247.839 429.809 256.888 429.809 268.05V268.101C429.809 279.263 420.966 288.312 410.059 288.312H380.934C379.846 288.312 378.778 288.222 377.738 288.049L372.095 293.626C371.942 293.778 371.737 293.863 371.523 293.863C371.069 293.863 370.701 293.486 370.701 293.021L370.7 285.391C364.995 281.847 361.184 275.43 361.184 268.101V268.05C361.184 256.888 370.026 247.839 380.934 247.839H410.059Z" fill="#2A84C6"/>
<path fill-rule="evenodd" clip-rule="evenodd" d="M410.059 247.839C420.966 247.839 429.809 256.888 429.809 268.05V268.101C429.809 279.263 420.966 288.312 410.059 288.312H380.934C379.846 288.312 378.778 288.222 377.738 288.049L372.095 293.626C371.942 293.778 371.737 293.863 371.523 293.863C371.069 293.863 370.701 293.486 370.701 293.021L370.7 285.391C364.995 281.847 361.184 275.43 361.184 268.101V268.05C361.184 256.888 370.026 247.839 380.934 247.839H410.059Z" fill="white" fill-opacity="0.5"/>
<g filter="url(#filter2_ddddd_197_1619)">
<path d="M405.269 199.418H446.855C462.438 199.418 475.07 212.345 475.07 228.291C475.07 244.236 462.438 257.163 446.855 257.163H405.269C389.687 257.163 377.055 244.236 377.055 228.291C377.055 212.345 389.687 199.418 405.269 199.418Z" fill="white"/>
<path fill-rule="evenodd" clip-rule="evenodd" d="M461.477 248.764V263.879C461.477 264.544 460.95 265.082 460.301 265.082C459.997 265.082 459.704 264.961 459.485 264.745L448.631 254.028L461.477 248.764Z" fill="white"/>
</g>
<path d="M444.945 231.899C442.429 231.899 440.389 229.812 440.389 227.238C440.389 224.663 442.429 222.576 444.945 222.576C447.46 222.576 449.5 224.663 449.5 227.238C449.5 229.812 447.46 231.899 444.945 231.899Z" fill="#1443BD"/>
<path d="M444.945 231.899C442.429 231.899 440.389 229.812 440.389 227.238C440.389 224.663 442.429 222.576 444.945 222.576C447.46 222.576 449.5 224.663 449.5 227.238C449.5 229.812 447.46 231.899 444.945 231.899Z" fill="black" fill-opacity="0.5"/>
<path d="M426.282 231.899C423.767 231.899 421.727 229.812 421.727 227.238C421.727 224.663 423.767 222.576 426.282 222.576C428.798 222.576 430.838 224.663 430.838 227.238C430.838 229.812 428.798 231.899 426.282 231.899Z" fill="#1443BD"/>
<path d="M426.282 231.899C423.767 231.899 421.727 229.812 421.727 227.238C421.727 224.663 423.767 222.576 426.282 222.576C428.798 222.576 430.838 224.663 430.838 227.238C430.838 229.812 428.798 231.899 426.282 231.899Z" fill="black" fill-opacity="0.5"/>
<path d="M407.179 231.899C404.663 231.899 402.624 229.812 402.624 227.238C402.624 224.663 404.663 222.576 407.179 222.576C409.695 222.576 411.734 224.663 411.734 227.238C411.734 229.812 409.695 231.899 407.179 231.899Z" fill="#1443BD"/>
<path d="M407.179 231.899C404.663 231.899 402.624 229.812 402.624 227.238C402.624 224.663 404.663 222.576 407.179 222.576C409.695 222.576 411.734 224.663 411.734 227.238C411.734 229.812 409.695 231.899 407.179 231.899Z" fill="black" fill-opacity="0.5"/>
<path fill-rule="evenodd" clip-rule="evenodd" d="M275.047 492.283H258.754V431.798C258.754 426.983 262.382 423.081 266.858 423.081H266.943C271.419 423.081 275.047 426.983 275.047 431.798V492.283Z" fill="#B7EE81"/>
<path fill-rule="evenodd" clip-rule="evenodd" d="M275.047 492.283H258.754V431.798C258.754 426.983 262.382 423.081 266.858 423.081H266.943C271.419 423.081 275.047 426.983 275.047 431.798V492.283Z" fill="white" fill-opacity="0.2"/>
<path fill-rule="evenodd" clip-rule="evenodd" d="M283.149 507.087H266.809V475.503C266.809 470.816 270.357 467.017 274.734 467.017H275.224C279.601 467.017 283.149 470.816 283.149 475.503V507.087Z" fill="#B7EE81"/>
<path fill-rule="evenodd" clip-rule="evenodd" d="M283.149 507.087H266.809V475.503C266.809 470.816 270.357 467.017 274.734 467.017H275.224C279.601 467.017 283.149 470.816 283.149 475.503V507.087Z" fill="black" fill-opacity="0.35"/>
<path fill-rule="evenodd" clip-rule="evenodd" d="M261.145 492.251H244.695V457.911C244.695 453.197 248.253 449.376 252.641 449.376H253.199C257.587 449.376 261.145 453.197 261.145 457.911V492.251Z" fill="#B7EE81"/>
<path fill-rule="evenodd" clip-rule="evenodd" d="M261.145 492.251H244.695V457.911C244.695 453.197 248.253 449.376 252.641 449.376H253.199C257.587 449.376 261.145 453.197 261.145 457.911V492.251Z" fill="white" fill-opacity="0.2"/>
<path fill-rule="evenodd" clip-rule="evenodd" d="M279.79 542.609H245.268C243.576 542.609 241.187 540.182 241.187 538.368L238.125 493.715C238.125 491.901 239.496 490.431 241.187 490.431H283.978C285.67 490.431 287.041 491.901 287.041 493.715L282.767 538.368C282.767 540.182 281.482 542.609 279.79 542.609Z" fill="#1443BD"/>
<path fill-rule="evenodd" clip-rule="evenodd" d="M279.79 542.609H245.268C243.576 542.609 241.187 540.182 241.187 538.368L238.125 493.715C238.125 491.901 239.496 490.431 241.187 490.431H283.978C285.67 490.431 287.041 491.901 287.041 493.715L282.767 538.368C282.767 540.182 281.482 542.609 279.79 542.609Z" fill="black" fill-opacity="0.2"/>
<g clip-path="url(#clip1_197_1619)">
<path fill-rule="evenodd" clip-rule="evenodd" d="M277.41 556.029L292.782 831.038H305.981L290.609 556.029H277.41Z" fill="#F2F2F2"/>
<path fill-rule="evenodd" clip-rule="evenodd" d="M235.09 556.029L219.078 831.038H232.827L248.839 556.029H235.09Z" fill="#F2F2F2"/>
<path fill-rule="evenodd" clip-rule="evenodd" d="M224.089 569.641C216.124 569.641 209.668 563.606 209.668 556.163C209.668 548.72 216.124 542.684 224.089 542.684H303.216C311.179 542.684 317.637 548.72 317.637 556.163C317.637 563.606 311.179 569.641 303.216 569.641H224.089Z" fill="#2A84C6"/>
<path fill-rule="evenodd" clip-rule="evenodd" d="M224.089 569.641C216.124 569.641 209.668 563.606 209.668 556.163C209.668 548.72 216.124 542.684 224.089 542.684H303.216C311.179 542.684 317.637 548.72 317.637 556.163C317.637 563.606 311.179 569.641 303.216 569.641H224.089Z" fill="white" fill-opacity="0.65"/>
</g>
<g opacity="0.8">
<path fill-rule="evenodd" clip-rule="evenodd" d="M653.604 113.218L700.168 148.433C701.07 147.518 702.37 146.995 703.767 147.112C706.232 147.32 708.066 149.444 707.863 151.856C707.66 154.269 705.497 156.057 703.032 155.849C701.374 155.71 700.001 154.703 699.342 153.325L642.735 172.099C642.896 172.615 642.962 173.168 642.914 173.738C642.711 176.15 640.548 177.938 638.083 177.731C635.617 177.523 633.784 175.4 633.987 172.987C634.182 170.662 636.198 168.918 638.55 168.979L648.583 115.134C646.552 114.575 645.142 112.67 645.321 110.538C645.524 108.126 647.687 106.338 650.152 106.545C652.617 106.753 654.451 108.877 654.248 111.289C654.189 111.998 653.96 112.652 653.604 113.218ZM698.936 151.105C698.921 151.278 698.917 151.45 698.923 151.619L665.615 155.695C665.165 153.917 663.601 152.532 661.634 152.367C661.206 152.331 660.787 152.355 660.386 152.432L651.282 115.053C651.969 114.816 652.584 114.418 653.074 113.902L699.625 149.106C699.243 149.688 698.998 150.368 698.936 151.105ZM659.545 152.681L650.429 115.256C650.11 115.3 649.782 115.311 649.448 115.285L639.423 169.086C640.241 169.266 640.968 169.661 641.545 170.204L657.323 158.8C656.925 158.077 656.729 157.238 656.803 156.36C656.945 154.67 658.049 153.287 659.545 152.681ZM657.814 159.515L642.119 170.86C642.22 171.002 642.313 171.15 642.397 171.303L699.049 152.514C699.046 152.5 699.042 152.486 699.039 152.472L665.741 156.546C665.75 156.732 665.746 156.921 665.73 157.111C665.528 159.524 663.365 161.311 660.899 161.104C659.646 160.999 658.556 160.398 657.814 159.515Z" fill="#B7EE81"/>
<path fill-rule="evenodd" clip-rule="evenodd" d="M653.604 113.218L700.168 148.433C701.07 147.518 702.37 146.995 703.767 147.112C706.232 147.32 708.066 149.444 707.863 151.856C707.66 154.269 705.497 156.057 703.032 155.849C701.374 155.71 700.001 154.703 699.342 153.325L642.735 172.099C642.896 172.615 642.962 173.168 642.914 173.738C642.711 176.15 640.548 177.938 638.083 177.731C635.617 177.523 633.784 175.4 633.987 172.987C634.182 170.662 636.198 168.918 638.55 168.979L648.583 115.134C646.552 114.575 645.142 112.67 645.321 110.538C645.524 108.126 647.687 106.338 650.152 106.545C652.617 106.753 654.451 108.877 654.248 111.289C654.189 111.998 653.96 112.652 653.604 113.218ZM698.936 151.105C698.921 151.278 698.917 151.45 698.923 151.619L665.615 155.695C665.165 153.917 663.601 152.532 661.634 152.367C661.206 152.331 660.787 152.355 660.386 152.432L651.282 115.053C651.969 114.816 652.584 114.418 653.074 113.902L699.625 149.106C699.243 149.688 698.998 150.368 698.936 151.105ZM659.545 152.681L650.429 115.256C650.11 115.3 649.782 115.311 649.448 115.285L639.423 169.086C640.241 169.266 640.968 169.661 641.545 170.204L657.323 158.8C656.925 158.077 656.729 157.238 656.803 156.36C656.945 154.67 658.049 153.287 659.545 152.681ZM657.814 159.515L642.119 170.86C642.22 171.002 642.313 171.15 642.397 171.303L699.049 152.514C699.046 152.5 699.042 152.486 699.039 152.472L665.741 156.546C665.75 156.732 665.746 156.921 665.73 157.111C665.528 159.524 663.365 161.311 660.899 161.104C659.646 160.999 658.556 160.398 657.814 159.515Z" fill="white" fill-opacity="0.65"/>
</g>
<g opacity="0.8">
<path fill-rule="evenodd" clip-rule="evenodd" d="M466.72 127.721L462.911 160.857C463.623 161.035 464.258 161.523 464.606 162.245C465.219 163.518 464.707 165.037 463.461 165.638C462.214 166.238 460.707 165.693 460.093 164.42C459.68 163.563 459.777 162.596 460.264 161.871L434.592 139.468C434.384 139.696 434.131 139.889 433.837 140.031C432.591 140.632 431.083 140.086 430.469 138.813C429.856 137.54 430.368 136.021 431.615 135.42C432.815 134.842 434.259 135.327 434.911 136.502L464.32 125.806C464.005 124.645 464.533 123.398 465.634 122.867C466.88 122.267 468.388 122.812 469.001 124.085C469.615 125.358 469.102 126.877 467.856 127.478C467.49 127.654 467.102 127.732 466.72 127.721ZM461.238 161.027C461.149 161.07 461.063 161.118 460.982 161.17L449.306 145.963C450.05 145.226 450.277 144.054 449.788 143.038C449.681 142.817 449.548 142.618 449.393 142.443L465.143 127.111C465.459 127.38 465.834 127.567 466.23 127.658L462.422 160.785C462.025 160.767 461.619 160.843 461.238 161.027ZM449.027 142.101L464.796 126.75C464.682 126.606 464.581 126.448 464.497 126.276L435.113 136.963C435.262 137.418 435.278 137.89 435.178 138.332L445.371 142.784C445.611 142.379 445.967 142.039 446.42 141.82C447.293 141.4 448.294 141.541 449.027 142.101ZM445.161 143.234L435.022 138.804C434.982 138.895 434.936 138.984 434.885 139.07L460.578 161.491C460.584 161.486 460.59 161.48 460.596 161.474L448.924 146.273C448.835 146.331 448.741 146.384 448.643 146.431C447.397 147.032 445.889 146.486 445.275 145.213C444.963 144.566 444.942 143.855 445.161 143.234Z" fill="#B7EE81"/>
<path fill-rule="evenodd" clip-rule="evenodd" d="M466.72 127.721L462.911 160.857C463.623 161.035 464.258 161.523 464.606 162.245C465.219 163.518 464.707 165.037 463.461 165.638C462.214 166.238 460.707 165.693 460.093 164.42C459.68 163.563 459.777 162.596 460.264 161.871L434.592 139.468C434.384 139.696 434.131 139.889 433.837 140.031C432.591 140.632 431.083 140.086 430.469 138.813C429.856 137.54 430.368 136.021 431.615 135.42C432.815 134.842 434.259 135.327 434.911 136.502L464.32 125.806C464.005 124.645 464.533 123.398 465.634 122.867C466.88 122.267 468.388 122.812 469.001 124.085C469.615 125.358 469.102 126.877 467.856 127.478C467.49 127.654 467.102 127.732 466.72 127.721ZM461.238 161.027C461.149 161.07 461.063 161.118 460.982 161.17L449.306 145.963C450.05 145.226 450.277 144.054 449.788 143.038C449.681 142.817 449.548 142.618 449.393 142.443L465.143 127.111C465.459 127.38 465.834 127.567 466.23 127.658L462.422 160.785C462.025 160.767 461.619 160.843 461.238 161.027ZM449.027 142.101L464.796 126.75C464.682 126.606 464.581 126.448 464.497 126.276L435.113 136.963C435.262 137.418 435.278 137.89 435.178 138.332L445.371 142.784C445.611 142.379 445.967 142.039 446.42 141.82C447.293 141.4 448.294 141.541 449.027 142.101ZM445.161 143.234L435.022 138.804C434.982 138.895 434.936 138.984 434.885 139.07L460.578 161.491C460.584 161.486 460.59 161.48 460.596 161.474L448.924 146.273C448.835 146.331 448.741 146.384 448.643 146.431C447.397 147.032 445.889 146.486 445.275 145.213C444.963 144.566 444.942 143.855 445.161 143.234Z" fill="white" fill-opacity="0.65"/>
</g>
<path d="M178 252C178 258.075 173.075 263 167 263C160.925 263 156 258.075 156 252C156 245.925 160.925 241 167 241C173.075 241 178 245.925 178 252Z" fill="white"/>
<mask id="mask0_197_1619" style="mask-type:alpha" maskUnits="userSpaceOnUse" x="156" y="241" width="22" height="22">
<circle cx="167" cy="252" r="11" fill="#C4C4C4"/>
</mask>
<g mask="url(#mask0_197_1619)">
<circle cx="167" cy="252" r="3" fill="#1443BD"/>
<circle cx="167" cy="252" r="3" fill="white" fill-opacity="0.5"/>
<circle cx="167" cy="262.5" r="7.5" fill="#1443BD"/>
<circle cx="167" cy="262.5" r="7.5" fill="white" fill-opacity="0.5"/>
</g>
<defs>
<filter id="filter0_i_197_1619" x="323.924" y="243" width="30.4609" height="36" filterUnits="userSpaceOnUse" color-interpolation-filters="sRGB">
<feFlood flood-opacity="0" result="BackgroundImageFix"/>
<feBlend mode="normal" in="SourceGraphic" in2="BackgroundImageFix" result="shape"/>
<feColorMatrix in="SourceAlpha" type="matrix" values="0 0 0 0 0 0 0 0 0 0 0 0 0 0 0 0 0 0 127 0" result="hardAlpha"/>
<feOffset dy="-1"/>
<feComposite in2="hardAlpha" operator="arithmetic" k2="-1" k3="1"/>
<feColorMatrix type="matrix" values="0 0 0 0 0 0 0 0 0 0 0 0 0 0 0 0 0 0 0.12 0"/>
<feBlend mode="normal" in2="shape" result="effect1_innerShadow_197_1619"/>
</filter>
<filter id="filter1_ddddd_197_1619" x="0.574219" y="320.421" width="245.781" height="217.193" filterUnits="userSpaceOnUse" color-interpolation-filters="sRGB">
<feFlood flood-opacity="0" result="BackgroundImageFix"/>
<feColorMatrix in="SourceAlpha" type="matrix" values="0 0 0 0 0 0 0 0 0 0 0 0 0 0 0 0 0 0 127 0" result="hardAlpha"/>
<feOffset dy="6"/>
<feGaussianBlur stdDeviation="4"/>
<feColorMatrix type="matrix" values="0 0 0 0 0.705882 0 0 0 0 0.831373 0 0 0 0 0.921569 0 0 0 0.12 0"/>
<feBlend mode="normal" in2="BackgroundImageFix" result="effect1_dropShadow_197_1619"/>
<feColorMatrix in="SourceAlpha" type="matrix" values="0 0 0 0 0 0 0 0 0 0 0 0 0 0 0 0 0 0 127 0" result="hardAlpha"/>
<feOffset dy="8"/>
<feGaussianBlur stdDeviation="12"/>
<feColorMatrix type="matrix" values="0 0 0 0 0.705882 0 0 0 0 0.831373 0 0 0 0 0.921569 0 0 0 0.08 0"/>
<feBlend mode="normal" in2="effect1_dropShadow_197_1619" result="effect2_dropShadow_197_1619"/>
<feColorMatrix in="SourceAlpha" type="matrix" values="0 0 0 0 0 0 0 0 0 0 0 0 0 0 0 0 0 0 127 0" result="hardAlpha"/>
<feOffset dy="16"/>
<feGaussianBlur stdDeviation="18"/>
<feColorMatrix type="matrix" values="0 0 0 0 0.705882 0 0 0 0 0.831373 0 0 0 0 0.921569 0 0 0 0.04 0"/>
<feBlend mode="normal" in2="effect2_dropShadow_197_1619" result="effect3_dropShadow_197_1619"/>
<feColorMatrix in="SourceAlpha" type="matrix" values="0 0 0 0 0 0 0 0 0 0 0 0 0 0 0 0 0 0 127 0" result="hardAlpha"/>
<feOffset dy="40"/>
<feGaussianBlur stdDeviation="35"/>
<feColorMatrix type="matrix" values="0 0 0 0 0.705882 0 0 0 0 0.831373 0 0 0 0 0.921569 0 0 0 0.04 0"/>
<feBlend mode="normal" in2="effect3_dropShadow_197_1619" result="effect4_dropShadow_197_1619"/>
<feColorMatrix in="SourceAlpha" type="matrix" values="0 0 0 0 0 0 0 0 0 0 0 0 0 0 0 0 0 0 127 0" result="hardAlpha"/>
<feOffset dy="2"/>
<feGaussianBlur stdDeviation="2"/>
<feColorMatrix type="matrix" values="0 0 0 0 0.87451 0 0 0 0 0.929412 0 0 0 0 0.964706 0 0 0 0.4 0"/>
<feBlend mode="normal" in2="effect4_dropShadow_197_1619" result="effect5_dropShadow_197_1619"/>
<feBlend mode="normal" in="SourceGraphic" in2="effect5_dropShadow_197_1619" result="shape"/>
</filter>
<filter id="filter2_ddddd_197_1619" x="307.055" y="169.418" width="238.016" height="205.664" filterUnits="userSpaceOnUse" color-interpolation-filters="sRGB">
<feFlood flood-opacity="0" result="BackgroundImageFix"/>
<feColorMatrix in="SourceAlpha" type="matrix" values="0 0 0 0 0 0 0 0 0 0 0 0 0 0 0 0 0 0 127 0" result="hardAlpha"/>
<feOffset dy="6"/>
<feGaussianBlur stdDeviation="4"/>
<feColorMatrix type="matrix" values="0 0 0 0 0.705882 0 0 0 0 0.831373 0 0 0 0 0.921569 0 0 0 0.12 0"/>
<feBlend mode="normal" in2="BackgroundImageFix" result="effect1_dropShadow_197_1619"/>
<feColorMatrix in="SourceAlpha" type="matrix" values="0 0 0 0 0 0 0 0 0 0 0 0 0 0 0 0 0 0 127 0" result="hardAlpha"/>
<feOffset dy="8"/>
<feGaussianBlur stdDeviation="12"/>
<feColorMatrix type="matrix" values="0 0 0 0 0.705882 0 0 0 0 0.831373 0 0 0 0 0.921569 0 0 0 0.08 0"/>
<feBlend mode="normal" in2="effect1_dropShadow_197_1619" result="effect2_dropShadow_197_1619"/>
<feColorMatrix in="SourceAlpha" type="matrix" values="0 0 0 0 0 0 0 0 0 0 0 0 0 0 0 0 0 0 127 0" result="hardAlpha"/>
<feOffset dy="16"/>
<feGaussianBlur stdDeviation="18"/>
<feColorMatrix type="matrix" values="0 0 0 0 0.705882 0 0 0 0 0.831373 0 0 0 0 0.921569 0 0 0 0.04 0"/>
<feBlend mode="normal" in2="effect2_dropShadow_197_1619" result="effect3_dropShadow_197_1619"/>
<feColorMatrix in="SourceAlpha" type="matrix" values="0 0 0 0 0 0 0 0 0 0 0 0 0 0 0 0 0 0 127 0" result="hardAlpha"/>
<feOffset dy="40"/>
<feGaussianBlur stdDeviation="35"/>
<feColorMatrix type="matrix" values="0 0 0 0 0.705882 0 0 0 0 0.831373 0 0 0 0 0.921569 0 0 0 0.04 0"/>
<feBlend mode="normal" in2="effect3_dropShadow_197_1619" result="effect4_dropShadow_197_1619"/>
<feColorMatrix in="SourceAlpha" type="matrix" values="0 0 0 0 0 0 0 0 0 0 0 0 0 0 0 0 0 0 127 0" result="hardAlpha"/>
<feOffset dy="2"/>
<feGaussianBlur stdDeviation="2"/>
<feColorMatrix type="matrix" values="0 0 0 0 0.87451 0 0 0 0 0.929412 0 0 0 0 0.964706 0 0 0 0.4 0"/>
<feBlend mode="normal" in2="effect4_dropShadow_197_1619" result="effect5_dropShadow_197_1619"/>
<feBlend mode="normal" in="SourceGraphic" in2="effect5_dropShadow_197_1619" result="shape"/>
</filter>
<clipPath id="clip0_197_1619">
<rect width="24" height="24" fill="white" transform="translate(326.924 255)"/>
</clipPath>
<clipPath id="clip1_197_1619">
<rect width="250.988" height="271.955" fill="white" transform="translate(138.098 517.188)"/>
</clipPath>
</defs>
</svg>
